<?xml version="1.0" encoding="utf-8"?>
<!-- Generator: Adobe Illustrator 21.0.2, SVG Export Plug-In . SVG Version: 6.00 Build 0)  -->
<svg version="1.1" id="Layer_1" xmlns="http://www.w3.org/2000/svg" xmlns:xlink="http://www.w3.org/1999/xlink" x="0px" y="0px"
	 viewBox="0 0 47.8 46.9" style="enable-background:new 0 0 47.8 46.9;" xml:space="preserve">
<style type="text/css">
	.st0{fill:#0AC7D9;}
	.st1{fill:#FFFFFF;}
	.st2{fill:#3D5D77;}
	.st3{fill:#DFEDF1;}
	.st4{opacity:0.5;fill:#9B9C9E;}
	.st5{opacity:0.5;fill:none;stroke:#9B9C9E;stroke-miterlimit:10;}
	.st6{fill:none;stroke:#0AC7D9;stroke-miterlimit:10;}
	.st7{fill:none;stroke:#DFEDF1;stroke-width:1.2831;stroke-miterlimit:10;}
	.st8{fill:#90A3AF;}
	.st9{fill:none;stroke:#0AC7D9;stroke-width:0.825;stroke-miterlimit:10;}
	.st10{opacity:0.5;fill:none;stroke:#CCCCCC;stroke-width:0.25;stroke-miterlimit:10;}
	.st11{fill:#FFFFFF;stroke:#3D5D77;stroke-width:0.75;stroke-miterlimit:10;}
	.st12{fill:#FFDD71;}
	.st13{fill:#6997B7;}
	.st14{opacity:0.5;fill:none;stroke:#0AC7D9;stroke-miterlimit:10;}
	.st15{fill:none;stroke:#3D5D77;stroke-width:1.5;stroke-miterlimit:10;}
	.st16{fill:#1C304A;}
	.st17{fill:#FFF6DE;}
	.st18{fill:none;stroke:#FFDD71;stroke-miterlimit:10;}
	.st19{fill:none;stroke:#FFDD71;stroke-width:0.825;stroke-miterlimit:10;}
	.st20{fill:#F2F2F2;}
	.st21{fill:none;stroke:#666666;stroke-width:2;stroke-miterlimit:10;stroke-dasharray:1.5,3;}
	.st22{fill:#808080;}
	.st23{fill:#333333;}
	.st24{fill:#C9B57D;}
	.st25{fill:#A4B8BC;}
	.st26{fill:none;stroke:#CCCCCC;stroke-width:0.25;stroke-miterlimit:10;}
	.st27{fill:none;stroke:#3D5D77;stroke-miterlimit:10;}
	.st28{fill:none;stroke:#1C304A;stroke-width:0.9576;stroke-miterlimit:10;}
</style>
<g>
	<path class="st1" d="M23.8,41.6c-9.7,0-18.1-8.1-18.1-18.2c0.1-9.3,7.5-18.1,18.2-18.1C34.1,5.4,42.1,13.4,42,23.6
		C42,34.5,32.9,41.6,23.8,41.6z M23.9,38.3c7.2,0,14.9-5.6,14.8-14.8c0-8.4-6.6-14.9-14.9-14.9C14.8,8.6,9,16.2,9,23.5
		C9.1,31.5,15.8,38.2,23.9,38.3z"/>
	<path class="st1" d="M34.1,20.4c-0.8,0.4-1.6,0.8-2.3,1.2c-0.1-0.1-0.2-0.3-0.3-0.4c-0.7-0.9-1.4-1.2-2.4-1c-0.9,0.2-1.5,1-1.7,2
		c-0.1,0.7-0.1,1.4,0,2.1c0.1,1,0.8,1.9,1.7,2.1c0.9,0.2,2,0.2,2.7-1.1c0.1-0.1,0.1-0.2,0.2-0.3c0.7,0.4,1.4,0.7,2.2,1.1
		c-0.4,0.8-1,1.4-1.7,1.9c-1.9,1.4-5.1,1.1-6.7-0.3c-0.9-0.8-1.4-1.8-1.6-2.9c-0.2-1.1-0.2-2.3,0.1-3.4c0.7-2.5,2.9-3.9,5.4-3.7
		c0.5,0,1,0.1,1.4,0.2C32.4,18.4,33.4,19.2,34.1,20.4z"/>
	<path class="st1" d="M23.7,20.4c-0.8,0.4-1.6,0.8-2.4,1.2c-0.1-0.2-0.2-0.3-0.3-0.4c-0.7-0.9-1.4-1.2-2.4-0.9c-1,0.3-1.5,1-1.6,2
		c-0.1,0.7-0.1,1.5,0,2.2c0.3,1.6,1.3,2.4,3,2c0.5-0.1,0.8-0.4,1.1-0.8c0.1-0.2,0.2-0.4,0.4-0.7c0.7,0.4,1.5,0.7,2.2,1.1
		c-1,1.9-3,3-5.1,2.8c-1.1-0.1-2-0.3-2.9-0.9c-1.1-0.7-1.7-1.8-2-3c-0.3-1.5-0.3-2.9,0.4-4.3c1-2,2.7-2.9,4.8-2.9
		c1.6,0,3.1,0.4,4.1,1.8C23.3,19.8,23.5,20.1,23.7,20.4z"/>
</g>
</svg>
