<?xml version="1.0" encoding="utf-8"?>
<!-- Generator: Adobe Illustrator 21.0.2, SVG Export Plug-In . SVG Version: 6.00 Build 0)  -->
<svg version="1.1" id="Layer_1" xmlns="http://www.w3.org/2000/svg" xmlns:xlink="http://www.w3.org/1999/xlink" x="0px" y="0px"
	 viewBox="0 0 41.5 41.5" style="enable-background:new 0 0 41.5 41.5;" xml:space="preserve">
<style type="text/css">
	.st0{fill:#3D5D77;}
	.st1{fill:#DFEDF1;}
	.st2{fill:#0AC7D9;}
	.st3{opacity:0.5;fill:#9B9C9E;}
	.st4{opacity:0.5;fill:none;stroke:#9B9C9E;stroke-miterlimit:10;}
	.st5{fill:none;stroke:#0AC7D9;stroke-miterlimit:10;}
	.st6{fill:none;stroke:#DFEDF1;stroke-width:1.2831;stroke-miterlimit:10;}
	.st7{fill:#90A3AF;}
	.st8{fill:#FFFFFF;}
	.st9{fill:none;stroke:#0AC7D9;stroke-width:0.825;stroke-miterlimit:10;}
	.st10{opacity:0.5;fill:none;stroke:#CCCCCC;stroke-width:0.25;stroke-miterlimit:10;}
	.st11{fill:#FFFFFF;stroke:#3D5D77;stroke-width:0.75;stroke-miterlimit:10;}
	.st12{fill:#FFDD71;}
	.st13{fill:#6997B7;}
	.st14{opacity:0.5;fill:none;stroke:#0AC7D9;stroke-miterlimit:10;}
	.st15{fill:none;stroke:#3D5D77;stroke-width:1.5;stroke-miterlimit:10;}
	.st16{fill:#1C304A;}
	.st17{fill:#FFF6DE;}
	.st18{fill:none;stroke:#FFDD71;stroke-miterlimit:10;}
	.st19{fill:none;stroke:#FFDD71;stroke-width:0.825;stroke-miterlimit:10;}
	.st20{fill:#F2F2F2;}
	.st21{fill:none;stroke:#666666;stroke-width:2;stroke-miterlimit:10;stroke-dasharray:1.5,3;}
	.st22{fill:#808080;}
	.st23{fill:#333333;}
	.st24{fill:#C9B57D;}
	.st25{fill:#A4B8BC;}
	.st26{fill:none;stroke:#CCCCCC;stroke-width:0.25;stroke-miterlimit:10;}
	.st27{fill:none;stroke:#3D5D77;stroke-miterlimit:10;}
	.st28{fill:none;stroke:#1C304A;stroke-width:0.9576;stroke-miterlimit:10;}
</style>
<path class="st2" d="M30.8,4H10.7C7,4,4,7,4,10.7v20.2c0,3.7,3,6.7,6.7,6.7h20.2c3.7,0,6.7-3,6.7-6.7V10.7C37.6,7,34.5,4,30.8,4z
	 M25.6,23.2c0.3-1.4,0.3-2.7,0.3-3.7c0-1.5,0-2.4,0-2.4l0,2.4c0,1,0,2.3-0.2,3.7c0,0.3,0.1,0.8-0.1,1.4c-0.4,0.1-0.7,0.1-1.1,0.1
	c0,0,0-0.1,0-0.1C24.9,23.8,25.3,23.4,25.6,23.2z M25.1,21.1c0.2-1.3,0.1-2.5,0.1-3.5l-0.1-2.2c0,0,0.1,0.8,0.2,2.2
	c0.1,0.9,0.1,2.1,0,3.4c0,0.4,0.1,0.9,0,1.7c-0.2,0.9-0.7,1.4-0.8,1.6c-0.1-0.2-0.3-0.9-0.1-1.9C24.4,21.6,24.8,21.3,25.1,21.1z
	 M24.5,15.7c0.1,0.9,0.2,2,0.2,3.2c0.1,0.3,0.2,0.8,0.1,1.6c-0.1,0.9-0.6,1.3-0.7,1.5c-0.1-0.2-0.4-0.8-0.2-1.7
	c0.1-0.8,0.5-1.1,0.7-1.3C24.6,17.7,24.5,16.6,24.5,15.7l-0.3-2C24.2,13.7,24.3,14.5,24.5,15.7z M23.6,13.9c0.1,0.8,0.3,1.8,0.3,2.9
	c0.1,0.3,0.2,0.7,0.2,1.5c-0.1,0.8-0.4,1.3-0.5,1.4c-0.1-0.2-0.4-0.7-0.3-1.6c0.1-0.7,0.4-1.1,0.5-1.3
	C23.8,15.8,23.6,14.7,23.6,13.9l-0.3-1.9L23.6,13.9z M22.6,12.2c0.2,0.7,0.4,1.6,0.5,2.7c0.1,0.3,0.3,0.7,0.2,1.3
	c0,0.7-0.3,1.2-0.4,1.4c-0.1-0.2-0.4-0.6-0.4-1.4c0-0.7,0.3-1,0.4-1.2C22.9,13.8,22.7,12.9,22.6,12.2l-0.4-1.7L22.6,12.2z
	 M19.9,15.2c0.4,0.6,0.9,1.5,1.5,2.4c0.3,0.1,0.7,0.2,1.2,0.8c0.5,0.7,0.5,1.3,0.5,1.5c-0.2-0.1-0.7-0.3-1.2-1
	c-0.4-0.6-0.5-1-0.6-1.3C20.7,16.7,20.3,15.9,19.9,15.2c-0.6-0.9-1-1.4-1-1.4C18.9,13.8,19.3,14.3,19.9,15.2z M18.5,12.1
	c0,0,0.4,0.5,1,1.3c0.4,0.6,0.9,1.4,1.5,2.2c0.3,0.1,0.7,0.2,1.1,0.7c0.5,0.6,0.5,1.2,0.5,1.4c-0.2-0.1-0.7-0.3-1.1-0.9
	c-0.4-0.5-0.5-0.9-0.6-1.2c-0.6-0.8-1-1.6-1.4-2.2C18.9,12.5,18.5,12.1,18.5,12.1z M21.5,10.4c0.2,0.6,0.5,1.5,0.6,2.4
	c0.1,0.2,0.3,0.6,0.3,1.2c0,0.7-0.2,1.1-0.3,1.3c-0.1-0.2-0.4-0.6-0.5-1.3c0-0.6,0.2-0.9,0.3-1.1C21.9,12,21.6,11.1,21.5,10.4
	C21.1,9.5,21,8.9,21,8.9L21.5,10.4z M18.7,8.2c0.2,0.3,1.1,1.7,1.9,3.6c0.2,0.1,0.5,0.3,0.7,0.7c0.2,0.6,0,0.9,0,1.1
	c-0.2-0.2-0.5-0.3-0.7-0.8c-0.2-0.4-0.1-0.7-0.1-0.9C19.6,9.7,18.6,8.2,18.7,8.2L18.7,8.2z M19,11.5c0.4,0.5,0.8,1.2,1.4,2
	c0.2,0.1,0.6,0.2,1,0.6c0.5,0.6,0.5,1.1,0.5,1.3c-0.1-0.1-0.6-0.3-1-0.8c-0.4-0.5-0.5-0.8-0.6-1.1C19.7,12.8,19.3,12.1,19,11.5
	c-0.6-0.8-0.9-1.2-0.9-1.2C18.1,10.3,18.5,10.8,19,11.5z M18.9,17.2c0.5,0.8,1.1,1.7,1.6,2.8c0.1,0.2,0.2,0.4,0.4,0.6
	c0.4,0.7,0.9,1.6,1.5,2.6c0.1-0.2,0.1-0.3,0.2-0.4c-0.2-0.6-0.4-1.1-0.6-1.6c-0.5-0.9-0.9-1.7-1.3-2.3c-0.6-1.1-1.1-1.7-1.1-1.7
	c0,0,0.5,0.6,1.1,1.7c0.1,0.2,0.3,0.4,0.4,0.7c-0.1-0.2-0.2-0.4-0.3-0.6l-1.3-2.4c0,0,0.5,0.9,1.4,2.4c0.4,0.7,0.8,1.5,1.3,2.4
	c0.1,0.1,0.1,0.2,0.2,0.3c0.3,0.1,0.6,0.2,1,0.6c-0.1-0.2-0.2-0.4-0.2-0.5c-0.2-0.2-0.4-0.4-0.6-0.7c-0.4-0.6-0.5-1.1-0.7-1.4
	c-0.6-1-1.1-1.9-1.5-2.6c-0.6-1-1-1.6-1-1.6c0,0,0.4,0.6,1.1,1.5c0.4,0.7,1,1.6,1.6,2.6c0.1,0,0.1,0,0.2,0.1c-0.5-1-0.8-1.6-0.8-1.6
	l0.9,1.7c0.3,0.1,0.6,0.3,0.9,0.7c0.5,0.8,0.5,1.4,0.5,1.7c-0.1-0.1-0.2-0.1-0.4-0.2c0.1,0.3,0.3,0.6,0.4,0.9
	c0.1,0.3,0.2,0.5,0.3,0.7c0.2,0.4,0.3,0.8,0.4,1.3c-0.1,0-0.1,0-0.2,0c0-0.2-0.1-0.3-0.1-0.5c0,0,0,0,0,0.1
	c-0.1-0.1-0.5-0.3-0.8-0.7c0.1,0.1,0.1,0.3,0.2,0.4c0.2,0.1,0.3,0.3,0.5,0.6c0,0,0,0,0,0.1c-0.5,0-1.1,0.1-1.6,0.1
	c-0.1-0.5-0.1-1,0-1.3c-0.2-0.3-0.3-0.6-0.5-0.9c0.2,0.9,0,1.6,0,1.9c-0.2-0.2-0.9-0.7-1.2-1.8c-0.3-0.9-0.1-1.5,0-1.8
	C20.1,19.4,19.4,18.2,18.9,17.2l-1.4-2.1C17.5,15.1,18,15.9,18.9,17.2z M16.2,22.7c-1.3-0.9-2.1-1.4-2.1-1.4
	C14.1,21.4,14.9,21.8,16.2,22.7c0.9,0.5,1.9,1.2,3.1,1.9c-0.1,0-0.3,0-0.4,0C17.9,23.9,16.9,23.2,16.2,22.7z M17.2,24.4
	c-0.1,0-0.2,0-0.2-0.1c-1.1-0.8-1.8-1.2-1.8-1.2C15.2,23.2,16,23.6,17.2,24.4z M18,22.9c-1.3-0.8-2.3-1.5-3.2-2.1
	c-1.2-0.8-2-1.2-2-1.2c0,0,0.8,0.4,2.1,1.2c0.9,0.5,2,1.3,3.2,2c0.4-0.1,1-0.2,1.9,0.3c1,0.6,1.3,1.3,1.5,1.6
	c-0.3-0.1-1.1-0.1-2-0.6C18.6,23.7,18.3,23.2,18,22.9z M11.5,17.9c0,0,0.8,0.4,1.9,1.1c0.8,0.5,1.9,1.2,3.1,1.8
	c0.4-0.1,0.9-0.2,1.7,0.3c1,0.5,1.3,1.2,1.4,1.4c-0.2,0-1,0-1.9-0.5c-0.8-0.4-1.1-0.8-1.4-1.1c-1.2-0.7-2.2-1.4-3-1.9
	C12.2,18.3,11.5,17.9,11.5,17.9z M16.9,15.7c0.6,0.8,1.4,1.8,2,3.1c0.2,0.3,0.7,0.7,1,1.6c0.4,0.9,0.2,1.6,0.2,1.9
	c-0.2-0.2-0.8-0.6-1.2-1.6c-0.3-0.8-0.2-1.4-0.1-1.7C18.1,17.6,17.4,16.6,16.9,15.7l-1.4-1.9L16.9,15.7z M14.8,14.2
	c0.6,0.7,1.4,1.6,2,2.7c0.2,0.3,0.7,0.6,1,1.4c0.4,0.8,0.3,1.5,0.3,1.7c-0.2-0.2-0.8-0.5-1.2-1.4c-0.4-0.7-0.3-1.3-0.2-1.6
	C16,15.9,15.3,15,14.8,14.2l-1.4-1.7L14.8,14.2z M12.6,12.9c0.6,0.6,1.3,1.4,2,2.4c0.2,0.2,0.6,0.5,1,1.2c0.4,0.7,0.4,1.3,0.4,1.6
	c-0.2-0.1-0.8-0.4-1.2-1.2c-0.4-0.7-0.3-1.1-0.3-1.4C13.9,14.3,13.1,13.5,12.6,12.9c-0.9-0.9-1.4-1.4-1.4-1.4L12.6,12.9z M8.2,11.8
	c0.4,0.3,2.2,1.4,4.1,3.1c0.2,0,0.7,0.1,1.2,0.5c0.6,0.5,0.5,1,0.6,1.2c-0.3-0.1-0.7-0.1-1.2-0.6c-0.4-0.3-0.5-0.7-0.6-1
	C10.1,13,8.1,11.7,8.2,11.8L8.2,11.8z M10.4,15.3c0.7,0.4,1.6,1,2.6,1.5c0.3-0.1,0.8-0.1,1.5,0.2c0.8,0.4,1.1,1,1.2,1.2
	c-0.2,0-0.8,0-1.6-0.4c-0.7-0.3-1-0.7-1.2-0.9C11.9,16.4,11,15.8,10.4,15.3c-1-0.6-1.7-0.9-1.7-0.9C8.7,14.5,9.4,14.7,10.4,15.3z
	 M10.1,16.2c0,0,0.7,0.3,1.8,1c0.8,0.4,1.7,1.1,2.9,1.7c0.3-0.1,0.9-0.2,1.6,0.2c0.9,0.5,1.2,1.1,1.3,1.3c-0.2,0-0.9,0-1.7-0.4
	c-0.7-0.4-1.1-0.8-1.3-1c-1.1-0.6-2-1.2-2.8-1.7C10.8,16.5,10.1,16.2,10.1,16.2z M33.4,22.9c-0.1,1.9-0.7,3.9-1.7,5.7
	c0,0-2.3,4.7-9.6,4.7c-7.3,0-9.7-4.7-9.7-4.7c-1-1.9-1.6-3.9-1.6-5.8h0c0,0,0-0.1,0-0.1c0-0.9,0.6-1.7,1.5-2.5l1,0.7
	c-0.6,0.4-1,0.9-1,1.4c0,1.8,4.4,3.2,9.8,3.2c5.4,0,9.8-1.4,9.8-3.2c0-1.2-2.1-2.3-5.2-2.8l0-1.3c3.9,0.8,6.7,2.5,6.7,4.5
	C33.4,22.8,33.4,22.9,33.4,22.9L33.4,22.9z"/>
</svg>
