<?xml version="1.0" encoding="utf-8"?>
<!-- Generator: Adobe Illustrator 21.0.2, SVG Export Plug-In . SVG Version: 6.00 Build 0)  -->
<svg version="1.1" id="Layer_1" xmlns="http://www.w3.org/2000/svg" xmlns:xlink="http://www.w3.org/1999/xlink" x="0px" y="0px"
	 viewBox="0 0 41.5 41.5" style="enable-background:new 0 0 41.5 41.5;" xml:space="preserve">
<style type="text/css">
	.st0{fill:#3D5D77;}
	.st1{fill:#DFEDF1;}
	.st2{fill:#0AC7D9;}
	.st3{opacity:0.5;fill:#9B9C9E;}
	.st4{opacity:0.5;fill:none;stroke:#9B9C9E;stroke-miterlimit:10;}
	.st5{fill:none;stroke:#0AC7D9;stroke-miterlimit:10;}
	.st6{fill:none;stroke:#DFEDF1;stroke-width:1.2831;stroke-miterlimit:10;}
	.st7{fill:#90A3AF;}
	.st8{fill:#FFFFFF;}
	.st9{fill:none;stroke:#0AC7D9;stroke-width:0.825;stroke-miterlimit:10;}
	.st10{opacity:0.5;fill:none;stroke:#CCCCCC;stroke-width:0.25;stroke-miterlimit:10;}
	.st11{fill:#FFFFFF;stroke:#3D5D77;stroke-width:0.75;stroke-miterlimit:10;}
	.st12{fill:#FFDD71;}
	.st13{fill:#6997B7;}
	.st14{opacity:0.5;fill:none;stroke:#0AC7D9;stroke-miterlimit:10;}
	.st15{fill:none;stroke:#3D5D77;stroke-width:1.5;stroke-miterlimit:10;}
	.st16{fill:#1C304A;}
	.st17{fill:#FFF6DE;}
	.st18{fill:none;stroke:#FFDD71;stroke-miterlimit:10;}
	.st19{fill:none;stroke:#FFDD71;stroke-width:0.825;stroke-miterlimit:10;}
	.st20{fill:#F2F2F2;}
	.st21{fill:none;stroke:#666666;stroke-width:2;stroke-miterlimit:10;stroke-dasharray:1.5,3;}
	.st22{fill:#808080;}
	.st23{fill:#333333;}
	.st24{fill:#C9B57D;}
	.st25{fill:#A4B8BC;}
	.st26{fill:none;stroke:#CCCCCC;stroke-width:0.25;stroke-miterlimit:10;}
	.st27{fill:none;stroke:#3D5D77;stroke-miterlimit:10;}
	.st28{fill:none;stroke:#1C304A;stroke-width:0.9576;stroke-miterlimit:10;}
</style>
<path class="st2" d="M30.8,4H10.7C7,4,4,7,4,10.7v20.2c0,3.7,3,6.7,6.7,6.7h20.2c3.7,0,6.7-3,6.7-6.7V10.7C37.6,7,34.5,4,30.8,4z
	 M30.5,15.2c0,0-1.1,1.2-2.9,0.3c0,0-0.9,0.8-2.4,0.1c0,0-1.1,0.8-2.3,0.1c0,0-0.7,0.5-1.4,0.4l-0.1,4.3c0,0,0.1,0,0.1,0
	c0,0,1.3-0.3,2.7-0.7c1.3-0.3,2.7-0.9,3-1.2c0,0,0,0-0.1-0.1c-0.1-0.1-0.3-0.1-0.6-0.2c-0.5-0.1-1.1-0.1-1.8-0.2c-1.3,0-1.5,0-1.6,0
	c0,0-0.8,0.1-1-0.7c0,0,0,0,0-0.1c0-0.5,0.4-0.6,0.8-0.6c0.5-0.1,0.3,0,1,0c1.2,0.1,4.9-0.2,5.3,1.7c0,0.1,0,0.1,0,0.1
	c-0.2,1.7-3.6,2.4-6.2,2.9c0.9,0.6,1.3,1.3,1.5,2.3c0.1,1.1-0.8,2.1-2.7,3.2c1.5,1,2.4,2,2.4,3.2c-0.1,1-1,2.3-2.7,3.1c0,0,0,0,0,0
	c0,0,0,0,0,0c0,0,1.2-1.8,1.2-2.8c0.1-0.6-0.2-1.4-1.5-2.3l0,3.5h0c0,0.3-0.2,0.5-0.5,0.5c-0.3,0-0.5-0.2-0.5-0.5h0l0-3.6
	c-1.4,1-1.7,1.9-1.7,2.4c0.1,1,1.2,2.8,1.2,2.8c0,0,0,0,0,0c0,0,0,0,0,0c-1.7-0.8-2.5-2.1-2.7-3.1c-0.1-1.2,0.9-2.2,2.4-3.2
	c-1.9-1.1-2.8-2.1-2.7-3.2c0.2-1,0.6-1.7,1.5-2.3c-2.5-0.5-6-1.2-6.2-2.9c0,0,0-0.1,0-0.1c0.5-1.9,4.1-1.6,5.3-1.7c0.7,0,0.4,0,1,0
	c0.3,0.1,0.7,0.1,0.8,0.6c0,0,0,0,0,0.1c-0.2,0.8-1,0.6-1,0.7c0,0-0.3-0.1-1.6,0c-0.7,0-1.3,0.1-1.8,0.2c-0.2,0-0.4,0.1-0.6,0.2
	c0,0-0.1,0-0.1,0.1c0.2,0.3,1.6,0.8,3,1.2c1.4,0.4,2.6,0.7,2.7,0.7c0.1,0,0.2,0,0.2,0.1l0-4.3c-0.7,0.1-1.4-0.4-1.4-0.4
	c-1.2,0.7-2.3-0.1-2.3-0.1c-1.5,0.8-2.4-0.1-2.4-0.1c-1.8,0.8-2.9-0.3-2.9-0.3c-2.1,0.4-2.8-1.3-2.8-1.3c3.8,0.3,7-3.4,7.8-4.1
	c0.8-0.7,1.3-0.5,2.1,0.9c0.5,0.9,1.4,1.1,1.9,1l0-0.2c-0.6-0.3-1-0.9-1-1.6c0-1,0.8-1.8,1.8-1.8c1,0,1.8,0.8,1.8,1.8
	c0,0.7-0.4,1.3-1,1.6l0,0.2c0.5,0,1.4-0.1,1.9-1c0.8-1.4,1.4-1.6,2.1-0.9c0.8,0.7,3.9,4.4,7.8,4.1C33.4,13.9,32.6,15.6,30.5,15.2z
	 M20.1,22.3l0,3.6c-0.3-0.2-0.7-0.4-1.1-0.7c-0.5-0.3-0.7-0.7-0.7-1C18.4,23.9,18.3,23,20.1,22.3z M21.4,22.4
	c1.6,0.7,1.5,1.5,1.5,1.9c0,0.3-0.2,0.7-0.7,1c-0.3,0.2-0.6,0.4-0.9,0.6L21.4,22.4z"/>
</svg>
