<?xml version="1.0" encoding="utf-8"?>
<!-- Generator: Adobe Illustrator 21.0.2, SVG Export Plug-In . SVG Version: 6.00 Build 0)  -->
<svg version="1.1" id="Layer_1" xmlns="http://www.w3.org/2000/svg" xmlns:xlink="http://www.w3.org/1999/xlink" x="0px" y="0px"
	 viewBox="0 0 40.9 22.2" style="enable-background:new 0 0 40.9 22.2;" xml:space="preserve">
<style type="text/css">
	.st0{fill:#3D5D77;}
	.st1{fill:#DFEDF1;}
	.st2{fill:#0AC7D9;}
	.st3{opacity:0.5;fill:#9B9C9E;}
	.st4{opacity:0.5;fill:none;stroke:#9B9C9E;stroke-miterlimit:10;}
	.st5{fill:none;stroke:#0AC7D9;stroke-miterlimit:10;}
	.st6{fill:none;stroke:#DFEDF1;stroke-width:1.2831;stroke-miterlimit:10;}
	.st7{fill:#90A3AF;}
	.st8{fill:#FFFFFF;}
	.st9{fill:none;stroke:#0AC7D9;stroke-width:0.825;stroke-miterlimit:10;}
	.st10{opacity:0.5;fill:none;stroke:#CCCCCC;stroke-width:0.25;stroke-miterlimit:10;}
	.st11{fill:#FFFFFF;stroke:#3D5D77;stroke-width:0.75;stroke-miterlimit:10;}
	.st12{fill:#FFDD71;}
	.st13{fill:#6997B7;}
	.st14{opacity:0.5;fill:none;stroke:#0AC7D9;stroke-miterlimit:10;}
	.st15{fill:none;stroke:#3D5D77;stroke-width:1.5;stroke-miterlimit:10;}
	.st16{fill:#1C304A;}
	.st17{fill:#FFF6DE;}
	.st18{fill:none;stroke:#FFDD71;stroke-miterlimit:10;}
	.st19{fill:none;stroke:#FFDD71;stroke-width:0.825;stroke-miterlimit:10;}
	.st20{fill:#F2F2F2;}
	.st21{fill:none;stroke:#666666;stroke-width:2;stroke-miterlimit:10;stroke-dasharray:1.5,3;}
	.st22{fill:#808080;}
	.st23{fill:#333333;}
	.st24{fill:#C9B57D;}
	.st25{fill:#A4B8BC;}
	.st26{fill:none;stroke:#CCCCCC;stroke-width:0.25;stroke-miterlimit:10;}
	.st27{fill:none;stroke:#3D5D77;stroke-miterlimit:10;}
	.st28{fill:none;stroke:#1C304A;stroke-width:0.9576;stroke-miterlimit:10;}
</style>
<rect x="21.3" y="2.5" class="st0" width="17.3" height="17.3"/>
<path class="st0" d="M2.9,5.3h2.6v11.9H2.9V5.3z"/>
<path class="st8" d="M25.1,5.2h5c1.5,0,2.6,0.5,3.4,1.2c0.6,0.6,0.9,1.4,0.9,2.2v0c0,2-1.5,3.1-3.5,3.4l3.9,5.1h-1.1l-3.8-4.9h0H26
	v4.9h-0.9V5.2z M30,11.4c2,0,3.5-1,3.5-2.7v0c0-1.6-1.3-2.6-3.4-2.6H26v5.4H30z"/>
<g>
	<path class="st2" d="M13.5,5.3c-3.5,0-6.1,2.7-6.1,5.9v0c0,3.2,2.5,5.9,6.1,5.9c3.5,0,6.1-2.7,6.1-5.9v0C19.5,8,17,5.3,13.5,5.3z"
		/>
	<g>
		<path class="st8" d="M14.5,10.3c0.6,0.5,0.6,1.4,0.1,2c-0.5,0.6-1.4,0.6-2,0.1c-0.6-0.5-2.2-4-2.2-4S13.9,9.8,14.5,10.3z"/>
	</g>
	<g>
		<circle class="st2" cx="13.6" cy="11.4" r="0.7"/>
	</g>
</g>
</svg>
