<?xml version="1.0" encoding="utf-8"?>
<!-- Generator: Adobe Illustrator 21.0.2, SVG Export Plug-In . SVG Version: 6.00 Build 0)  -->
<svg version="1.1" id="Layer_1" xmlns="http://www.w3.org/2000/svg" xmlns:xlink="http://www.w3.org/1999/xlink" x="0px" y="0px"
	 viewBox="0 0 104 42" style="enable-background:new 0 0 104 42;" xml:space="preserve">
<style type="text/css">
	.st0{fill:#3D5D77;}
	.st1{fill:#DFEDF1;}
	.st2{fill:#0AC7D9;}
	.st3{opacity:0.5;fill:#9B9C9E;}
	.st4{opacity:0.5;fill:none;stroke:#9B9C9E;stroke-miterlimit:10;}
	.st5{fill:none;stroke:#0AC7D9;stroke-miterlimit:10;}
	.st6{fill:none;stroke:#DFEDF1;stroke-width:1.2831;stroke-miterlimit:10;}
	.st7{fill:#90A3AF;}
	.st8{fill:#FFFFFF;}
	.st9{fill:none;stroke:#0AC7D9;stroke-width:0.825;stroke-miterlimit:10;}
	.st10{opacity:0.5;fill:none;stroke:#CCCCCC;stroke-width:0.25;stroke-miterlimit:10;}
	.st11{fill:#FFFFFF;stroke:#3D5D77;stroke-width:0.75;stroke-miterlimit:10;}
	.st12{fill:#FFDD71;}
	.st13{fill:#6997B7;}
	.st14{opacity:0.5;fill:none;stroke:#0AC7D9;stroke-miterlimit:10;}
	.st15{fill:none;stroke:#3D5D77;stroke-width:1.5;stroke-miterlimit:10;}
	.st16{fill:#1C304A;}
	.st17{fill:#FFF6DE;}
	.st18{fill:none;stroke:#FFDD71;stroke-miterlimit:10;}
	.st19{fill:none;stroke:#FFDD71;stroke-width:0.825;stroke-miterlimit:10;}
	.st20{fill:#F2F2F2;}
	.st21{fill:none;stroke:#666666;stroke-width:2;stroke-miterlimit:10;stroke-dasharray:1.5,3;}
	.st22{fill:#808080;}
	.st23{fill:#333333;}
	.st24{fill:#C9B57D;}
	.st25{fill:#A4B8BC;}
	.st26{fill:none;stroke:#CCCCCC;stroke-width:0.25;stroke-miterlimit:10;}
	.st27{fill:none;stroke:#3D5D77;stroke-miterlimit:10;}
	.st28{fill:none;stroke:#1C304A;stroke-width:0.9576;stroke-miterlimit:10;}
</style>
<g>
	<g>
		<rect x="7.3" y="19" class="st0" width="89.4" height="17.3"/>
	</g>
	<path class="st0" d="M7.3,5.9h2.4V17H7.3V5.9z"/>
	<path class="st0" d="M12.5,5.9h2.2l5.2,6.8V5.9h2.4V17h-2.1l-5.4-7v7h-2.4V5.9z"/>
	<path class="st0" d="M25,5.9h4.3c3.5,0,5.9,2.4,5.9,5.5v0c0,3.1-2.4,5.5-5.9,5.5H25V5.9z M29.3,14.8c2,0,3.3-1.3,3.3-3.3v0
		c0-2-1.3-3.3-3.3-3.3h-1.9v6.7H29.3z"/>
	<path class="st0" d="M37.5,5.9h2.4V17h-2.4V5.9z"/>
	<path class="st0" d="M42.2,11.5L42.2,11.5c0-3.2,2.4-5.8,5.8-5.8c2.1,0,3.3,0.7,4.4,1.7l-1.5,1.8C49.9,8.4,49,8,47.9,8
		c-1.9,0-3.2,1.6-3.2,3.5v0c0,1.9,1.3,3.5,3.2,3.5c1.3,0,2-0.5,2.9-1.3l1.6,1.6c-1.1,1.2-2.4,2-4.5,2C44.6,17.2,42.2,14.7,42.2,11.5
		z"/>
	<path class="st0" d="M57.7,5.8h2.2L64.7,17h-2.5l-1-2.5h-4.7l-1,2.5h-2.5L57.7,5.8z M60.2,12.4l-1.5-3.6l-1.5,3.6H60.2z"/>
	<path class="st0" d="M67.5,8.2h-3.4V5.9h9.2v2.2H70V17h-2.4V8.2z"/>
	<path class="st0" d="M87.2,5.9h5.1c1.4,0,2.5,0.4,3.2,1.1c0.6,0.6,1,1.5,1,2.5v0c0,1.8-1,2.9-2.4,3.4l2.7,4h-2.8l-2.4-3.5h0h-1.9
		V17h-2.4V5.9z M92.1,11.3c1.2,0,1.9-0.6,1.9-1.6v0c0-1-0.7-1.6-1.9-1.6h-2.4v3.2H92.1z"/>
	<g>
		<path class="st8" d="M19,22.4h4.1c1.2,0,2.1,0.4,2.7,1c0.5,0.5,0.7,1.1,0.7,1.8v0c0,1.6-1.2,2.5-2.8,2.8l3.2,4.1H26l-3.1-4h0h-3.1
			v4H19V22.4z M23,27.4c1.6,0,2.8-0.8,2.8-2.2v0c0-1.3-1-2.1-2.8-2.1h-3.3v4.4H23z"/>
		<path class="st8" d="M29,22.4h6.9v0.7h-6.2v3.8h5.5v0.7h-5.5v3.9h6.2v0.7h-7V22.4z"/>
		<path class="st8" d="M37.8,27.3L37.8,27.3c0-2.6,1.9-5,4.8-5c1.6,0,2.6,0.5,3.5,1.3l-0.5,0.5c-0.8-0.7-1.6-1.2-3.1-1.2
			c-2.4,0-4,2-4,4.3v0c0,2.5,1.6,4.4,4.1,4.4c1.2,0,2.4-0.5,3.1-1.1v-2.8h-3.2v-0.7h3.9v3.7c-0.9,0.8-2.2,1.5-3.8,1.5
			C39.6,32.3,37.8,30,37.8,27.3z"/>
		<path class="st8" d="M49.2,22.4h0.7v9.7h-0.7V22.4z"/>
		<path class="st8" d="M52.3,30.7l0.5-0.5c1.1,1,2,1.4,3.5,1.4c1.5,0,2.4-0.8,2.4-1.9v0c0-1-0.5-1.6-2.7-2.1
			c-2.3-0.5-3.3-1.3-3.3-2.7v0c0-1.4,1.3-2.5,3.1-2.5c1.4,0,2.3,0.4,3.3,1.2L58.6,24c-0.9-0.8-1.8-1.1-2.9-1.1
			c-1.4,0-2.4,0.8-2.4,1.8v0c0,1,0.5,1.6,2.8,2.1c2.2,0.5,3.2,1.3,3.2,2.7v0c0,1.6-1.3,2.6-3.2,2.6C54.6,32.2,53.4,31.7,52.3,30.7z"
			/>
		<path class="st8" d="M64.2,23.1h-3.4v-0.7h7.5v0.7h-3.4v9h-0.7V23.1z"/>
		<path class="st8" d="M70.5,22.4h4.1c1.2,0,2.1,0.4,2.7,1c0.5,0.5,0.7,1.1,0.7,1.8v0c0,1.6-1.2,2.5-2.8,2.8l3.2,4.1h-0.9l-3.1-4h0
			h-3.1v4h-0.7V22.4z M74.5,27.4c1.6,0,2.8-0.8,2.8-2.2v0c0-1.3-1-2.1-2.8-2.1h-3.3v4.4H74.5z"/>
		<path class="st8" d="M83.3,28.3l-4.1-5.8H80l3.6,5.2l3.6-5.2h0.9L84,28.3v3.8h-0.7V28.3z"/>
	</g>
	<path class="st2" d="M80.1,5.7c-3.4,0-5.9,2.6-5.9,5.7v0c0,3.1,2.5,5.7,5.9,5.7c3.4,0,5.9-2.6,5.9-5.7v0C86,8.3,83.6,5.7,80.1,5.7z
		"/>
	<g>
		<path class="st8" d="M81.1,10.5c0.6,0.5,0.6,1.4,0.1,2c-0.5,0.6-1.4,0.6-2,0.1c-0.6-0.5-2.1-3.8-2.1-3.8S80.6,10,81.1,10.5z"/>
	</g>
	<g>
		<circle class="st2" cx="80.2" cy="11.6" r="0.7"/>
	</g>
</g>
</svg>
