<?xml version="1.0" encoding="utf-8"?>
<!-- Generator: Adobe Illustrator 21.0.2, SVG Export Plug-In . SVG Version: 6.00 Build 0)  -->
<svg version="1.1" id="Layer_1" xmlns="http://www.w3.org/2000/svg" xmlns:xlink="http://www.w3.org/1999/xlink" x="0px" y="0px"
	 viewBox="0 0 41.5 41.5" style="enable-background:new 0 0 41.5 41.5;" xml:space="preserve">
<style type="text/css">
	.st0{fill:#3D5D77;}
	.st1{fill:#DFEDF1;}
	.st2{fill:#0AC7D9;}
	.st3{opacity:0.5;fill:#9B9C9E;}
	.st4{opacity:0.5;fill:none;stroke:#9B9C9E;stroke-miterlimit:10;}
	.st5{fill:none;stroke:#0AC7D9;stroke-miterlimit:10;}
	.st6{fill:none;stroke:#DFEDF1;stroke-width:1.2831;stroke-miterlimit:10;}
	.st7{fill:#90A3AF;}
	.st8{fill:#FFFFFF;}
	.st9{fill:none;stroke:#0AC7D9;stroke-width:0.825;stroke-miterlimit:10;}
	.st10{opacity:0.5;fill:none;stroke:#CCCCCC;stroke-width:0.25;stroke-miterlimit:10;}
	.st11{fill:#FFFFFF;stroke:#3D5D77;stroke-width:0.75;stroke-miterlimit:10;}
	.st12{fill:#FFDD71;}
	.st13{fill:#6997B7;}
	.st14{opacity:0.5;fill:none;stroke:#0AC7D9;stroke-miterlimit:10;}
	.st15{fill:none;stroke:#3D5D77;stroke-width:1.5;stroke-miterlimit:10;}
	.st16{fill:#1C304A;}
	.st17{fill:#FFF6DE;}
	.st18{fill:none;stroke:#FFDD71;stroke-miterlimit:10;}
	.st19{fill:none;stroke:#FFDD71;stroke-width:0.825;stroke-miterlimit:10;}
	.st20{fill:#F2F2F2;}
	.st21{fill:none;stroke:#666666;stroke-width:2;stroke-miterlimit:10;stroke-dasharray:1.5,3;}
	.st22{fill:#808080;}
	.st23{fill:#333333;}
	.st24{fill:#C9B57D;}
	.st25{fill:#A4B8BC;}
	.st26{fill:none;stroke:#CCCCCC;stroke-width:0.25;stroke-miterlimit:10;}
	.st27{fill:none;stroke:#3D5D77;stroke-miterlimit:10;}
	.st28{fill:none;stroke:#1C304A;stroke-width:0.9576;stroke-miterlimit:10;}
</style>
<path class="st2" d="M23,23.5h-7.4c-0.3,0-0.6-0.3-0.6-0.6v-1.4c0-0.3,0.2-0.6,0.6-0.8c0,0,1.5-0.5,3.7-0.5c2.2,0,3.7,0.5,3.7,0.5
	c0.5,0.2,0.6,0.6,0.6,1v1.2C23.6,23.2,23.4,23.5,23,23.5z M15.1,25.8c-0.5,0-1,0.4-1,1s0.4,1,1,1c0.5,0,1-0.4,1-1
	S15.6,25.8,15.1,25.8z M21.9,27.6h-5.1c-0.1,0-0.2,0.1-0.2,0.2c0,0.1,0.1,0.2,0.2,0.2h5.1c0.1,0,0.2-0.1,0.2-0.2
	C22.1,27.7,22,27.6,21.9,27.6z M37.6,10.7v20.2c0,3.7-3,6.7-6.7,6.7H10.7c-3.7,0-6.7-3-6.7-6.7V10.7C4,7,7,4,10.7,4h20.2
	C34.5,4,37.6,7,37.6,10.7z M26.9,29.9c0-0.6-0.1-1-0.4-1h-0.2v-0.6c0-1.1-0.1-2-0.2-2.9c0,0,0,0,0,0v-5.9h-0.3v-1.4h-0.5v1.4H25v4
	c-0.1-0.1-0.2-0.1-0.3-0.2v-4.1c0-0.3-1.6-1.4-5.4-1.4c-3.8,0-5.4,1-5.4,1.4v4.1c-0.7,0.4-1.2,1.1-1.4,2c-0.1,0.9-0.2,1.9-0.2,2.9
	v0.6h-0.2c-0.2,0-0.4,0.3-0.4,1c0,0.6,0.1,0.9,0.4,0.9h1.5v0.3c0,0.4,0,0.8,0,1.1c0,0.3,0.1,0.5,0.1,0.7c0.2,0.3,0.5,0.5,1.1,0.5
	c0.5,0,0.8-0.2,1-0.5c0.1-0.3,0.2-0.8,0.2-1.6v-0.5h6.6v0.5c0,0.8,0.1,1.3,0.2,1.6c0.2,0.3,0.5,0.5,1,0.5c0.5,0,0.9-0.2,1.1-0.5
	c0-0.2,0.1-0.4,0.1-0.7c0-0.3,0-0.6,0-1.1v-0.3h1.5C26.8,30.8,26.9,30.5,26.9,29.9z M29.8,11.1c0-0.1-0.1-0.2-0.4-0.3l-0.5-0.2
	c-0.6-0.2-1-0.3-1.1-0.3c0,0-0.1,0-0.3,0.1c-0.2,0.1-0.5,0.1-0.9,0.3c0,0-0.3,0.1-0.7,0.1c-0.4,0.1-1,0.2-1.9,0.4l-8.3-3
	c0,0-0.1,0-0.2,0c-0.3,0-0.5,0.1-0.8,0.4l5.3,3.2l-1.8,0.3l-1.5-1.2L16.3,11v1l-1.8-0.7l-0.3,0.2l1.6,1.4V13c0,0.2,0.2,0.4,0.5,0.4
	l0.8,1l0.4-0.1l0.1-0.7h4.1l0.9,0.7v2.1h0.8l1.6-3.5c0.5-0.1,1.1-0.2,1.7-0.3c0.6-0.1,1.2-0.3,1.9-0.4c0.1-0.1,0.3-0.1,0.4-0.2
	c0.1-0.1,0.3-0.2,0.4-0.2c0.1-0.1,0.2-0.2,0.3-0.3C29.7,11.2,29.8,11.2,29.8,11.1z M21.9,25.6h-5.1c-0.1,0-0.2,0.1-0.2,0.2
	c0,0.1,0.1,0.2,0.2,0.2h5.1c0.1,0,0.2-0.1,0.2-0.2C22.1,25.7,22,25.6,21.9,25.6z M21.9,26.6h-5.1c-0.1,0-0.2,0.1-0.2,0.2
	c0,0.1,0.1,0.2,0.2,0.2h5.1c0.1,0,0.2-0.1,0.2-0.2C22.1,26.7,22,26.6,21.9,26.6z M23.6,25.8c-0.5,0-1,0.4-1,1s0.4,1,1,1
	c0.5,0,1-0.4,1-1S24.1,25.8,23.6,25.8z"/>
</svg>
