<?xml version="1.0" encoding="utf-8"?>
<!-- Generator: Adobe Illustrator 21.0.2, SVG Export Plug-In . SVG Version: 6.00 Build 0)  -->
<svg version="1.1" id="Layer_1" xmlns="http://www.w3.org/2000/svg" xmlns:xlink="http://www.w3.org/1999/xlink" x="0px" y="0px"
	 viewBox="0 0 162.4 47.3" style="enable-background:new 0 0 162.4 47.3;" xml:space="preserve">
<style type="text/css">
	.st0{fill:#0AC7D9;}
	.st1{fill:#FFFFFF;}
	.st2{fill:#3D5D77;}
	.st3{fill:#DFEDF1;}
	.st4{opacity:0.5;fill:#9B9C9E;}
	.st5{opacity:0.5;fill:none;stroke:#9B9C9E;stroke-miterlimit:10;}
	.st6{fill:none;stroke:#0AC7D9;stroke-miterlimit:10;}
	.st7{fill:none;stroke:#DFEDF1;stroke-width:1.2831;stroke-miterlimit:10;}
	.st8{fill:#90A3AF;}
	.st9{fill:none;stroke:#0AC7D9;stroke-width:0.825;stroke-miterlimit:10;}
	.st10{opacity:0.5;fill:none;stroke:#CCCCCC;stroke-width:0.25;stroke-miterlimit:10;}
	.st11{fill:#FFFFFF;stroke:#3D5D77;stroke-width:0.75;stroke-miterlimit:10;}
	.st12{fill:#FFDD71;}
	.st13{fill:#6997B7;}
	.st14{opacity:0.5;fill:none;stroke:#0AC7D9;stroke-miterlimit:10;}
	.st15{fill:none;stroke:#3D5D77;stroke-width:1.5;stroke-miterlimit:10;}
	.st16{fill:#1C304A;}
	.st17{fill:#FFF6DE;}
	.st18{fill:none;stroke:#FFDD71;stroke-miterlimit:10;}
	.st19{fill:none;stroke:#FFDD71;stroke-width:0.825;stroke-miterlimit:10;}
	.st20{fill:#F2F2F2;}
	.st21{fill:none;stroke:#666666;stroke-width:2;stroke-miterlimit:10;stroke-dasharray:1.5,3;}
	.st22{fill:#808080;}
	.st23{fill:#333333;}
	.st24{fill:#C9B57D;}
	.st25{fill:#A4B8BC;}
	.st26{fill:none;stroke:#CCCCCC;stroke-width:0.25;stroke-miterlimit:10;}
	.st27{fill:none;stroke:#3D5D77;stroke-miterlimit:10;}
	.st28{fill:none;stroke:#1C304A;stroke-width:0.9576;stroke-miterlimit:10;}
</style>
<g>
	<path class="st1" d="M55.4,24.4c0-7.1,5.2-12.7,12.6-12.7c7.3,0,12.6,5.5,12.6,12.7C80.5,31.5,75.3,37,68,37
		C60.6,37,55.4,31.5,55.4,24.4 M77.1,24.4c0-5.3-3.6-9.6-9.1-9.6s-9.1,4.3-9.1,9.6S62.5,34,68,34S77.1,29.6,77.1,24.4"/>
	<path class="st1" d="M102,17.5c-1.4-1.8-3.6-2.8-5.8-2.8c-5.4,0-9,4.3-9,9.8c0,5.1,3.4,9.4,9,9.4c2.8,0,4.9-1.2,6.3-3.2l2.8,2.1
		c-0.7,1-3.6,4.2-9.1,4.2c-7.7,0-12.4-6.4-12.4-12.5c0-7.5,5.1-12.9,12.6-12.9c3.2,0,6.5,1.2,8.4,3.7L102,17.5z"/>
	<polygon class="st1" points="109.2,12.3 112.5,12.3 112.5,22.3 124.9,22.3 124.9,12.3 128.2,12.3 128.2,36.4 124.9,36.4 
		124.9,25.4 112.5,25.4 112.5,36.4 109.2,36.4 	"/>
	<path class="st1" d="M142,12.3h3l10.3,24.1h-3.8l-2.4-6h-11.5l-2.4,6h-3.8L142,12.3z M147.8,27.6l-4.5-11.1h-0.1l-4.6,11.1H147.8z"
		/>
	<path class="st1" d="M24.6,20.6c0-1.8,1.5-3.3,3.3-3.3c1.8,0,3.3,1.5,3.3,3.3c0,1.8-1.5,3.3-3.3,3.3v-0.2v-0.2
		c1.6,0,2.9-1.3,2.9-2.9c0-1.6-1.3-2.9-2.9-2.9c-1.6,0-2.9,1.3-2.9,2.9c0,1.6,1.3,2.9,2.9,2.9v0.2v0.2
		C26.1,23.9,24.6,22.4,24.6,20.6"/>
	<path class="st1" d="M22,20.6c0-3.3,2.7-6,6-6c3.3,0,6,2.7,6,6c0,3.3-2.7,6-6,6v-0.2v-0.2c3.1,0,5.6-2.5,5.6-5.6
		c0-3.1-2.5-5.6-5.6-5.6c-3.1,0-5.6,2.5-5.6,5.6c0,3.1,2.5,5.6,5.6,5.6v0.2v0.2C24.7,26.6,22,23.9,22,20.6"/>
	<path class="st1" d="M19.1,20.6c0-4.9,4-8.9,8.9-8.9c4.9,0,8.9,4,8.9,8.9c0,4.9-4,8.9-8.9,8.9v-0.2V29c4.7,0,8.4-3.8,8.5-8.4
		c0-4.7-3.8-8.4-8.5-8.5c-4.7,0-8.4,3.8-8.5,8.5c0,4.7,3.8,8.4,8.5,8.4v0.2v0.2C23.1,29.5,19.1,25.5,19.1,20.6"/>
	<path class="st1" d="M16.3,20.6C16.3,14.2,21.5,9,28,9c6.4,0,11.6,5.2,11.6,11.6c0,6.4-5.2,11.6-11.6,11.6V32v-0.2
		c6.2,0,11.2-5,11.2-11.2c0-6.2-5-11.2-11.2-11.2c-6.2,0-11.2,5-11.2,11.2c0,6.2,5,11.2,11.2,11.2V32v0.2
		C21.5,32.2,16.3,27,16.3,20.6"/>
	<path class="st1" d="M13.3,20.6c0-8.1,6.6-14.7,14.7-14.7c8.1,0,14.7,6.6,14.7,14.7c0,8.1-6.6,14.7-14.7,14.7v-0.2v-0.2
		c7.9,0,14.3-6.4,14.3-14.3c0-7.9-6.4-14.3-14.3-14.3c-7.9,0-14.3,6.4-14.3,14.3c0,7.9,6.4,14.3,14.3,14.3v0.2v0.2
		C19.8,35.3,13.3,28.7,13.3,20.6"/>
	<rect x="27.7" y="6.1" class="st1" width="0.4" height="11.4"/>
	<polygon class="st1" points="17.6,10.5 17.9,10.2 25.9,18.2 25.6,18.5 	"/>
	<rect x="13.5" y="20.4" class="st1" width="11.4" height="0.4"/>
	<polygon class="st1" points="17.6,30.7 25.6,22.7 25.9,23 17.9,31 	"/>
	<rect x="27.7" y="23.7" class="st1" width="0.4" height="11.4"/>
	<rect x="34" y="21.1" transform="matrix(0.7092 -0.705 0.705 0.7092 -8.9688 31.9027)" class="st1" width="0.4" height="11.3"/>
	<rect x="31.1" y="20.4" class="st1" width="11.4" height="0.4"/>
	<polygon class="st1" points="30,18.2 38.1,10.2 38.3,10.5 30.3,18.5 	"/>
	<path class="st1" d="M25.7,21.5c0.1,0,0.1,0.1,0.1,0.2c0,0,0,0,0.1,0c0.2-0.2,0.3-0.5,0.4-0.7c0,0,0.1,0,0.1-0.1
		c0-0.1-0.2-0.2-0.2-0.3c-0.1,0.2-0.3,0-0.4,0.1c0,0,0,0.1,0,0.1c0.1,0,0.1,0,0.1,0c0,0.1,0,0.1,0,0.2c0,0,0,0,0,0
		c-0.1-0.1-0.2-0.1-0.3-0.1c0.1,0,0,0,0,0.1c-0.2,0-0.4,0-0.5,0.1c-0.1,0-0.1,0-0.2-0.1c-0.1,0.1-0.1,0.2-0.2,0.2
		c0,0-0.1-0.1-0.1-0.1c0.1-0.1,0.2-0.1,0.2-0.2c0-0.1,0-0.2,0-0.3c0.1-0.1,0.1-0.2,0.2-0.2c0.1,0,0.3,0.1,0.4,0c0,0,0.1,0.1,0.1,0.1
		c0,0,0,0,0,0.1c-0.1,0.1-0.2,0.1-0.2,0.2c0,0.1,0,0.1,0.1,0.1c0.1,0,0.1-0.1,0.2-0.1c0-0.1,0.1,0,0.1,0c0,0,0,0,0,0
		c0.1,0,0.2,0,0.3,0c0.1,0,0.1-0.3,0-0.4c0,0,0-0.1,0-0.1c0,0,0,0,0-0.1c0-0.1,0.2-0.1,0.2,0c0,0,0,0.1,0,0.1c0,0,0,0.1,0.1,0
		c0,0,0,0,0,0c0,0,0-0.1,0-0.2c0,0,0.1,0.1,0.2,0.1c0.1,0,0.2,0,0.2,0c0.1,0,0.1-0.1,0-0.2c0,0-0.1,0-0.1,0
		c-0.1,0.1-0.2,0.1-0.2,0.1c-0.1,0-0.1-0.1-0.2-0.1c-0.1,0-0.2,0.1-0.2,0c-0.1,0-0.1-0.1-0.1-0.2c0,0,0.1-0.1,0.1-0.1
		c0.1,0,0.2,0,0.3-0.1c0-0.1,0.1-0.2,0.1-0.2c0,0,0,0,0.1,0c0.1,0,0.2,0,0.3-0.1c0.1,0,0.2-0.1,0.3-0.2c0.1,0,0.1-0.1,0.2-0.1
		c0,0,0-0.1,0.1-0.1c0-0.2,0-0.4,0-0.5c0-0.1,0.1-0.1,0.1-0.1c0,0-0.1,0-0.1,0c0,0-0.1-0.1,0-0.1c0,0,0.2,0,0.2-0.1
		c0.1-0.1,0-0.3-0.1-0.3c-0.1-0.1-0.2,0-0.3,0c0,0,0,0.1-0.1,0.1c-0.1,0-0.2-0.1-0.1-0.2c0,0,0,0,0,0c0,0,0,0,0-0.1c0,0-0.1,0-0.1,0
		c-0.1,0.1-0.2,0.2-0.3,0.3c0,0,0,0,0,0.1c0,0,0,0,0,0c0,0.1,0,0.2-0.1,0.2c0,0,0,0,0,0c0,0-0.1,0-0.1,0c0,0.1,0.2,0.1,0.1,0.2
		c-0.1,0.1-0.2,0.1-0.4,0.2c-0.3,0.1-0.6,0-0.9,0c-0.2,0-0.3,0-0.5,0c-0.1,0-0.1,0.1-0.2,0.2c0,0,0,0,0,0c0-0.1,0-0.1,0-0.2
		c0-0.1-0.1,0-0.1-0.1c-0.2-0.4-0.7-0.3-1.1-0.3c-0.1,0-0.1,0.1-0.1,0.1c-0.1,0.1-0.2,0-0.3,0c0,0-0.1,0.1-0.1,0.1
		c-0.1,0-0.2-0.1-0.3,0c-0.1,0.1-0.1,0.1-0.2,0.1c0,0,0,0.1,0,0.1c0,0-0.1,0-0.1,0c-0.1,0-0.3,0-0.3,0.1h0c0,0.1,0,0.3-0.1,0.3
		c-0.1,0-0.3,0-0.4,0.1c-0.1,0-0.1,0.1-0.2,0.1c-0.2,0.4-0.4,0.7-0.4,1.2v0c0,0,0,0.1,0,0.1c-0.2,0.4-0.3,0.6-0.6,1.1
		c-0.1,0.2-0.2,0.6,0,0.7c0.1,0.1,0,0.2-0.2,0.2c-0.2,0-0.4,0-0.4-0.2c0-0.1-0.2-0.1-0.3-0.1h0l-0.1,0c-0.1,0-0.2,0-0.3,0
		c-0.2,0-0.2,0.3-0.3,0.4c-0.1,0.1-0.3,0.1-0.3,0.2c0,0.1,0,0.1,0,0.2c0,0-0.1,0-0.1,0.1c0,0,0,0.1,0,0.1c0,0.2-0.1,0.3,0,0.5
		c0,0,0,0.1,0,0.1c0,0.2,0,0.3-0.1,0.5c-0.1,0.2-0.3,0.2-0.5,0.2c-0.1,0-0.2,0-0.3,0c-0.2,0-0.4,0-0.6,0c0,0-0.1,0-0.1,0
		c-0.1,0-0.1-0.1-0.2-0.1c-0.1-0.1-0.1-0.2-0.1-0.2c-0.1-0.1-0.3,0-0.4,0.1c0.1,0,0,0.1,0,0.1c-0.1,0-0.2,0.1-0.3,0.2
		c-0.1,0.1-0.2-0.2-0.2-0.3c0-0.1-0.1-0.1-0.2-0.1c0,0,0,0,0,0.1c0,0-0.1,0-0.1,0c-0.1,0.1,0.1,0.1,0.1,0.1c0,0,0,0.1,0,0.1
		c0,0-0.1,0-0.1,0c0,0.1-0.1,0.1-0.1,0.1c0,0,0,0,0,0c0,0,0,0,0,0c-0.1,0-0.1,0.1-0.1,0c0,0,0-0.1,0-0.2c0,0-0.1,0-0.1,0
		c0,0.1,0,0.1-0.1,0.1c0,0,0,0.1,0,0.1c0.1,0,0.1,0,0.2,0c0.1,0.1,0.1,0.2,0.1,0.3c0,0,0,0,0,0c0,0.1,0,0.2-0.1,0.1
		c-0.1-0.1,0-0.2,0-0.3c0,0-0.1,0-0.1,0c0.1,0.2-0.1,0.3,0.1,0.5c0.1,0.1-0.2,0.2-0.1,0.2c0,0,0.1,0.1,0.2,0.1c0,0,0-0.1,0-0.1
		c0,0,0.1-0.1,0.1,0c0,0,0,0.1,0,0.1c-0.1,0-0.1,0-0.1,0c0,0.1,0,0.2,0,0.3c0,0,0,0.1,0,0.1c0,0.1,0.2,0,0.2,0.1
		c0,0.1-0.1,0.1,0,0.2c0,0,0.1,0,0.1,0.1c0,0,0,0.1,0,0.1c0,0,0.1,0,0.1,0.1c0.1,0,0.1,0,0.1-0.1c0.1,0,0.1-0.1,0.1-0.2
		c0,0,0-0.1-0.1,0c0-0.1,0-0.1,0-0.2c0-0.1-0.1-0.1-0.1-0.2c0.1,0,0.1,0,0.2-0.1c0,0,0.1,0,0.1,0.1c0,0,0,0,0,0.1
		c0.1,0,0.1,0.1,0.1,0.1c0.1,0,0.1,0.1,0.2,0.2c0.1,0,0.2,0,0.3,0c0-0.1,0-0.1,0-0.1c0,0,0.1,0.1,0.1,0.1c0,0.1,0,0.2,0.1,0.3
		c0,0,0.1,0,0.1,0c0,0,0.1,0.1,0.1,0.1c0,0,0.1,0,0.1,0c0.1,0,0.1,0.1,0.1,0.1c0,0,0,0,0,0c0.1,0,0.2,0,0.2,0.1
		c0.1,0.1,0.1,0.2,0.2,0.4c0,0.1,0.1,0.1,0.1,0.1c0,0,0,0.1,0.1,0.1c0.1,0.1,0.2,0.1,0.3,0.1c0,0,0.1-0.1,0.2-0.1c0,0,0.1,0,0.1,0
		c0.1,0.2,0.1,0.4,0.3,0.4c0.1,0,0.1,0.1,0.2,0.2c0,0,0.1,0,0.2,0c0,0,0,0.1,0.1,0.1c0.1,0.1,0.2,0.1,0.2,0.2c0,0,0,0.1,0,0.1
		c0.1,0,0.2-0.1,0.2,0c0.1,0.1,0.2,0.1,0.2,0.2c0,0,0.1,0,0.1,0c0,0,0-0.1,0-0.1c0-0.1,0.1,0,0.2-0.1c0.1,0,0.1-0.2,0.1-0.2
		c0.1,0,0.2,0.1,0.3,0.2c0,0,0,0,0.1,0c0.1,0.1,0.1,0.3,0.2,0.3c0.2,0,0.2,0.1,0.4,0.2c0.1,0,0.2,0.1,0.3,0.1c0,0,0.1,0,0.1,0
		c0.1,0,0.1,0,0.2-0.1c0.1-0.1,0.3-0.1,0.4-0.2c0,0,0.1-0.1,0.1-0.1c0.2-0.1,0.5,0.1,0.7,0c0.1,0,0.1,0,0.2-0.1
		c0.1-0.1,0.2-0.3,0.1-0.4c-0.1-0.2-0.2-0.5-0.3-0.7c-0.1-0.1-0.2-0.2-0.3-0.3c0,0-0.1,0-0.1,0c-0.1,0-0.1-0.1-0.1-0.2
		c0,0-0.1,0-0.1-0.1c0-0.1,0-0.1,0-0.2c0,0,0-0.1,0-0.1c-0.1,0-0.2-0.1-0.4-0.1c0,0-0.1,0-0.1-0.1c0,0,0-0.1,0-0.1
		c0.1-0.1,0.2-0.1,0.3-0.1c0,0,0-0.1,0-0.1c0-0.1,0-0.1,0-0.2c0,0,0-0.1-0.1-0.1c0-0.1,0.1-0.2,0-0.3c-0.1-0.1-0.2-0.2-0.2-0.3
		c0,0-0.1,0-0.1-0.1c0-0.1,0-0.3,0-0.5c0-0.1-0.1-0.1,0-0.2c0,0,0.1-0.1,0.1-0.1c0.1,0,0.1-0.1,0.1-0.2c-0.1-0.1-0.2,0-0.2,0
		c0,0,0,0,0-0.1c0-0.1,0-0.2,0-0.2c0,0-0.1-0.1-0.1-0.1c0-0.1,0-0.2,0-0.2c0,0,0-0.1-0.1,0c0-0.1,0-0.2,0-0.2c0-0.1-0.1-0.2-0.2-0.1
		c0,0,0,0,0,0c0,0-0.1,0.1-0.2,0c0,0,0-0.1,0-0.1c0,0,0.1,0,0.1-0.1c0.1-0.1,0-0.2,0-0.2c-0.1-0.1-0.2-0.2-0.1-0.3
		c-0.1,0-0.3,0-0.3-0.2c0-0.2,0-0.3-0.1-0.4c0-0.1,0-0.2,0-0.3c0,0,0-0.1,0.1-0.1c0.2,0,0.4,0,0.4-0.1c0.1-0.1-0.1-0.3,0-0.3
		c0.2-0.1,0.4,0,0.6-0.2c0.1,0,0.1-0.1,0-0.2c0-0.1-0.1-0.2-0.1-0.2c-0.1-0.1-0.2,0-0.3-0.2c0-0.1,0-0.1,0-0.2
		c0-0.1,0.1-0.1,0.2-0.2c0.2-0.1,0.3,0,0.5,0.1c0,0,0.1,0.1,0.1,0.1c0,0,0,0,0,0.1c0,0.2,0.1,0.4,0,0.6c0,0.1-0.1,0.1-0.1,0.2
		c0.1,0,0.1,0,0.1,0c0,0.1,0.1,0.3,0,0.4c-0.1,0.1-0.1,0-0.3,0c-0.1,0-0.1,0-0.1,0.1c0,0,0.1,0.1,0.1,0.1c0.4,0.1,0.5,0.1,0.9,0.2
		c0.1,0,0.1,0.1,0.2,0.1c0.1,0,0.1,0,0.2,0c0,0,0.1,0,0.1,0c0,0.1,0.1,0.1,0.1,0.1c0.1,0.1,0.1,0.3,0.2,0.3c0.1-0.1,0.2,0,0.2,0
		c-0.1,0.1,0,0.2,0,0.3c0.1,0.1,0.2,0.1,0.3,0.2c0.1,0.1,0.2,0.1,0.2,0c0-0.1-0.1-0.2,0-0.3c0.1,0.2,0,0.4,0.1,0.6c0,0,0,0,0,0
		c0.1,0.1,0.1,0.2,0.2,0.2c0.1,0,0.1-0.1,0.1-0.2c0,0,0-0.1,0-0.1c0-0.1,0-0.1,0.1-0.2c0-0.1,0.1-0.2,0.1-0.3c0,0,0-0.1,0-0.1
		c0-0.1,0.2-0.2,0.3-0.2c0,0,0,0,0-0.1c0.1,0,0-0.2,0.1-0.2c0-0.1,0.1-0.1,0.1-0.2c0,0,0.1-0.1,0-0.1C25.7,21.6,25.7,21.5,25.7,21.5
		"/>
	<path class="st1" d="M21.5,21.3c-0.1,0-0.1,0-0.1,0c0,0,0,0.1,0,0.1c0,0,0.1,0.1,0.1,0.1c0,0.1,0,0.2,0,0.3c0,0.1,0.1,0.2,0.2,0.1
		c0.1-0.1,0.2-0.3,0.1-0.4C21.6,21.5,21.7,21.4,21.5,21.3"/>
	<path class="st1" d="M21.3,22.2C21.4,22.2,21.4,22.2,21.3,22.2c0.1,0.2,0.2,0.1,0.3,0.1c0,0,0-0.1,0-0.1
		C21.5,22.1,21.5,22.1,21.3,22.2c0.1-0.1,0-0.1,0-0.1C21.3,22.1,21.3,22.1,21.3,22.2"/>
	<path class="st1" d="M21.6,22.6c0-0.2-0.1-0.2-0.2-0.1c-0.1,0.1,0,0.3,0.1,0.4c0,0,0,0.1,0.1,0.1c0,0.1,0.1,0,0.2,0
		c0-0.1,0-0.1,0.1-0.1C21.8,22.8,21.7,22.6,21.6,22.6"/>
	<path class="st1" d="M21.3,21.8C21.3,21.7,21.2,21.7,21.3,21.8c-0.1,0-0.1,0-0.1,0.1c0,0.1,0,0.2,0.1,0.2c0,0,0.1,0,0.1-0.1
		C21.3,21.9,21.3,21.9,21.3,21.8"/>
	<path class="st1" d="M21.7,22.4c0,0,0.1-0.1,0.1-0.1c0,0,0.1,0,0.1,0c0,0,0,0,0-0.1c-0.1,0-0.1,0.1-0.2,0.1
		C21.6,22.3,21.7,22.4,21.7,22.4"/>
	<path class="st1" d="M21.6,23.3c0,0.1,0,0.1,0.1,0.1c0,0,0.1,0,0.1,0c0,0,0-0.1,0-0.1C21.7,23.3,21.7,23.3,21.6,23.3
		C21.6,23.2,21.6,23.3,21.6,23.3"/>
	<path class="st1" d="M21.8,24c0-0.1,0.1-0.1,0-0.2c0,0-0.1,0-0.1,0C21.7,23.9,21.8,24,21.8,24"/>
	<path class="st1" d="M15.5,26.5c0,0,0,0.1,0,0.1c0,0,0.1,0,0.2,0C15.6,26.6,15.6,26.4,15.5,26.5"/>
	<path class="st1" d="M16.1,27.2c-0.1,0.1,0.1,0.2,0.2,0.2c0,0,0-0.1,0-0.2C16.3,27.2,16.2,27.1,16.1,27.2"/>
	<path class="st1" d="M16.4,27.6c0,0.2,0.1,0.3,0.2,0.3C16.7,27.7,16.6,27.6,16.4,27.6"/>
	<path class="st1" d="M26.5,22.4c0.2-0.1,0.4-0.1,0.6-0.1c0.4,0,0.4-0.6,0.6-0.9c0-0.1,0-0.3-0.1-0.4c-0.1-0.2-0.6,0-0.7-0.2
		c-0.1-0.1,0.3,0.1,0.3-0.1c0-0.1,0-0.1-0.1-0.2c-0.1,0-0.2,0-0.2,0c-0.2,0.2-0.3,0.5-0.4,0.8c-0.3,0.4-0.7,0.7-0.9,1.2
		c0,0.1,0,0.1,0.1,0.2C26,22.8,26.3,22.5,26.5,22.4"/>
	<path class="st1" d="M28.3,21.4c-0.1,0-0.1,0-0.2,0.1c0,0.1,0,0.2,0,0.2c0,0,0.1,0,0.1,0c0-0.1,0-0.1-0.1-0.1
		C28.3,21.5,28.3,21.4,28.3,21.4"/>
	<path class="st1" d="M27,22.9c0.1,0.2,0.5,0.1,0.5,0c0-0.1-0.3-0.2-0.4-0.2C26.9,22.7,27.2,22.8,27,22.9"/>
	<path class="st1" d="M27.5,24.2c0.1-0.1,0.1-0.2,0.1-0.3c-0.1,0.1-0.2,0.2-0.3,0.3C27.4,24.2,27.4,24.2,27.5,24.2"/>
	<path class="st1" d="M29.3,21.5c0,0,0-0.1,0-0.1c0,0-0.1,0-0.2,0c-0.1,0-0.1-0.1-0.1-0.2c0-0.1-0.1-0.2-0.1-0.3
		c-0.1,0-0.1,0.2-0.1,0.2C29,21.3,29.1,21.6,29.3,21.5"/>
	<path class="st1" d="M26.9,20.3C26.8,20.2,26.8,20.3,26.9,20.3C26.8,20.4,26.9,20.4,26.9,20.3C26.9,20.3,26.9,20.3,26.9,20.3"/>
	<path class="st1" d="M15.1,24.1c0,0,0-0.1-0.1-0.1c0,0-0.1,0-0.1,0c0,0,0,0.1,0,0.1C14.9,24.1,15,24.2,15.1,24.1"/>
	<path class="st1" d="M15.8,24.1c0.1,0,0.2-0.1,0.1-0.2c0,0,0,0,0,0c-0.1-0.1-0.3,0-0.2,0.1C15.6,24.1,15.7,24.2,15.8,24.1"/>
	<path class="st1" d="M27.2,17.1c0-0.1,0.1-0.1,0.1-0.2c0,0-0.1,0-0.1,0C27.1,16.9,27.1,17,27.2,17.1C27.1,17,27.1,17,27.2,17.1
		C27.1,17.1,27.2,17.1,27.2,17.1"/>
	<path class="st1" d="M27.5,17c0,0,0.1-0.1,0-0.1c0,0-0.1,0-0.1,0C27.4,16.9,27.4,17,27.5,17"/>
	<path class="st1" d="M26.4,19.6c0,0.1,0.2,0.3,0.3,0.2c0.1-0.1,0-0.2,0-0.2C26.6,19.5,26.5,19.5,26.4,19.6"/>
	<path class="st1" d="M26.7,20.4c0,0,0-0.1,0-0.1c0,0-0.1,0-0.2,0c0,0,0,0-0.1,0c0,0,0,0.1,0.1,0.1C26.5,20.3,26.6,20.4,26.7,20.4"
		/>
	<path class="st1" d="M26.4,20.6c-0.1,0,0,0.1,0,0.2c0.1,0,0.1,0,0.2-0.1c0-0.1,0.1-0.2,0-0.2C26.5,20.5,26.4,20.5,26.4,20.6"/>
	<path class="st1" d="M26.2,20.3c0,0.1-0.1,0.2,0,0.3c0,0.1,0.1,0,0.1,0c0-0.1,0-0.2,0.1-0.2c0,0-0.1,0-0.1,0c0,0,0,0,0-0.1
		C26.2,20.3,26.2,20.3,26.2,20.3"/>
	<path class="st1" d="M27.5,25.9C27.5,25.9,27.5,25.9,27.5,25.9C27.5,25.9,27.5,25.9,27.5,25.9L27.5,25.9z"/>
	<path class="st1" d="M33.8,27.4C33.9,27.4,33.8,27.3,33.8,27.4C33.8,27.4,33.8,27.4,33.8,27.4C33.8,27.4,33.8,27.4,33.8,27.4"/>
	<path class="st1" d="M28,23.5C28,23.6,28,23.5,28,23.5c-0.1-0.1-0.1-0.1-0.1-0.1c0-0.1-0.1,0.1-0.2,0c0,0,0,0,0,0
		c0.1,0.1,0,0.1-0.1,0.2c0,0.1,0.1,0.1,0.1,0.1c0,0.1-0.1,0.1,0,0.2c0,0-0.1,0.1-0.1,0.1c0,0-0.1,0.1,0,0.1c0.1,0.1,0.2-0.1,0.3-0.1
		c0.1,0,0.1,0,0.1,0c0.1,0,0.1-0.1,0.2-0.2c0,0-0.1,0-0.2,0C28,23.8,27.9,23.8,28,23.5C28,23.6,28,23.5,28,23.5"/>
	<path class="st1" d="M28.6,25.4C28.6,25.5,28.7,25.5,28.6,25.4c0.1,0,0.1-0.1,0.1-0.2c0,0-0.1,0-0.1,0
		C28.6,25.3,28.6,25.4,28.6,25.4"/>
	<path class="st1" d="M28.7,25.2c0.1,0,0-0.1,0-0.1c0,0-0.1,0-0.1,0C28.6,25.1,28.6,25.2,28.7,25.2"/>
	<path class="st1" d="M29.3,25.5C29.3,25.5,29.3,25.4,29.3,25.5c-0.1,0-0.1-0.1-0.2,0c0,0-0.1,0-0.1,0c0,0,0,0.1,0,0.1
		C29.2,25.5,29.2,25.5,29.3,25.5"/>
	<path class="st1" d="M30.3,25.4c0,0,0-0.1,0-0.1c-0.1,0-0.2,0.1-0.3,0c0,0,0,0.1,0,0.1c0,0,0,0-0.1,0
		C30.1,25.5,30.2,25.4,30.3,25.4"/>
	<path class="st1" d="M30.7,25c0,0.2,0.2,0.1,0.2,0C31,24.9,30.9,24.9,30.7,25c0.1-0.1,0.1-0.1,0.1-0.1C30.8,25,30.7,25,30.7,25"/>
	<path class="st1" d="M35.5,21.8c0,0.1,0.1,0.1,0.2,0.1c0.1,0,0.2,0,0.3-0.1c0-0.2-0.1-0.3-0.3-0.3C35.5,21.6,35.5,21.7,35.5,21.8"
		/>
	<path class="st1" d="M35.5,26.9c0,0-0.1,0-0.1,0c-0.1,0.5-0.6,1.2,0,1.5c0.2,0.2,0.5-0.1,0.6-0.3C36,27.8,36,27.1,35.5,26.9"/>
	<path class="st1" d="M34,24.7c-0.1,0-0.1,0.2,0,0.2c0,0,0.1,0,0.1-0.1c0,0,0-0.1,0-0.1C34.1,24.7,34.1,24.7,34,24.7"/>
	<path class="st1" d="M34.4,29.8c0,0.1,0,0.2,0,0.2C34.4,30,34.6,29.9,34.4,29.8C34.4,29.8,34.4,29.8,34.4,29.8"/>
	<path class="st1" d="M36.7,18.1c-0.1,0-0.1,0-0.1,0c0,0.1,0,0.1,0,0.2c-0.2,0.4-0.7,0.9-0.4,1.4c0,0,0,0,0,0
		c0.1-0.1,0.2-0.2,0.3-0.4c0.1-0.3,0.3-0.6,0.4-1C36.9,18.3,36.8,18.1,36.7,18.1"/>
	<path class="st1" d="M35.8,19.9c0,0.1,0,0.1,0.1,0.1c0.1,0,0.1-0.1,0-0.1C35.9,19.8,35.9,19.8,35.8,19.9"/>
	<path class="st1" d="M30.7,16.8c-0.1-0.2-0.2,0-0.3,0c0,0-0.1-0.1-0.1-0.1c0,0-0.1,0-0.1,0c-0.1,0,0,0.2,0.1,0.2
		c0.1,0,0.1-0.1,0.1,0c0.1,0.1,0,0.3,0.2,0.2c0.1,0,0.2-0.1,0.3-0.1c0.1,0,0.1-0.1,0.1-0.2c0.1,0,0.2-0.1,0.3,0c0,0,0,0.1,0.1,0.1
		c0,0.1,0.1,0.1,0.2,0.1c0.1,0,0.2,0,0.3-0.1c0.1-0.1,0.1-0.2,0-0.3c0,0-0.1,0-0.2,0c-0.1,0-0.1-0.1-0.2-0.1
		C31.1,16.4,30.9,16.7,30.7,16.8"/>
	<path class="st1" d="M31.6,17C31.6,17,31.5,17,31.6,17c-0.1,0-0.1,0-0.1,0H31.6z"/>
	<path class="st1" d="M29.7,17c0.1,0,0.2,0,0.3,0v0c0-0.2-0.2-0.1-0.3-0.1C29.8,16.8,29.8,16.9,29.7,17C29.7,16.9,29.7,16.9,29.7,17
		C29.6,16.9,29.7,17,29.7,17"/>
	<path class="st1" d="M30.1,17.6c0.1-0.1,0.3-0.2,0.4-0.3c0,0,0,0,0-0.1c0,0,0,0,0,0c0-0.1-0.1-0.1-0.2-0.2c0,0.1-0.1,0.1-0.1,0.1
		c-0.1,0.1-0.2,0.1-0.2,0.2c0,0.1,0,0.2,0,0.2C30.1,17.8,30.1,17.7,30.1,17.6"/>
	<path class="st1" d="M28.6,16.6c0,0,0,0.1,0,0.1C28.7,16.8,28.7,16.7,28.6,16.6C28.6,16.6,28.6,16.6,28.6,16.6"/>
	<path class="st1" d="M25,14.4c0.1,0.1,0.3,0.1,0.4,0.1c0,0,0.1-0.1,0.1-0.1c-0.1-0.1-0.2,0-0.2-0.1l-0.1,0
		C25.1,14.2,25,14.3,25,14.4C24.9,14.4,25,14.4,25,14.4"/>
	<path class="st1" d="M34.1,16c0,0.1-0.1,0-0.2,0.1c0,0,0,0.1,0,0.1c0.1,0.1,0.2,0,0.3,0c0,0,0,0,0,0c0,0,0.1-0.1,0.1,0
		c0,0,0,0.1,0,0.1c-0.1,0-0.1,0.1-0.1,0.1c0,0-0.1,0-0.2,0c0,0,0,0-0.1,0h0c0,0.1,0,0.1,0,0.2c-0.1,0.1-0.4,0.2-0.3,0.4
		c0.1,0.1,0.3,0.1,0.5,0.1c0,0,0,0,0,0c0-0.2,0.1-0.2,0.2-0.3c0,0,0-0.1-0.1-0.1c0,0,0-0.1,0-0.1c0.1,0,0.1-0.1,0.1-0.1v-0.1
		c0.1,0,0.2-0.1,0.2-0.1c0-0.1-0.1-0.2-0.1-0.3c0,0,0-0.1,0.1-0.1c0,0,0,0,0-0.1c0,0,0,0-0.1,0c0,0-0.1,0,0,0.1
		c-0.1,0-0.2,0-0.3,0.1C34.1,15.8,34.2,16,34.1,16"/>
	<path class="st1" d="M33.1,17c0,0.1,0.1,0.1,0.2,0c0,0,0,0,0,0C33.2,17,33.1,17,33.1,17"/>
	<path class="st1" d="M34.5,16.8c-0.1,0.1,0.1,0.1,0.2,0.1c0,0,0,0,0,0c0,0,0,0,0,0C34.7,16.8,34.6,16.8,34.5,16.8"/>
	<path class="st1" d="M34.9,16.3C34.8,16.3,34.8,16.3,34.9,16.3C34.8,16.3,34.8,16.4,34.9,16.3C34.9,16.4,34.9,16.4,34.9,16.3
		C34.9,16.3,34.9,16.3,34.9,16.3"/>
	<path class="st1" d="M32.6,12.3c0.1,0.1,0.2,0.1,0.2,0.2c0,0.1,0,0.2,0,0.4c0,0,0.1,0.1,0.1,0.1c0,0.1,0,0.1,0,0.2
		c0,0.1,0.1,0.3,0.1,0.4c0.1,0,0.1,0.1,0.1,0.1c0,0.1,0,0.1,0.1,0.2c0,0.1,0.1,0,0.2,0.1c0.1,0.1,0.2,0.3,0.3,0.4c0,0,0.1,0,0.1,0.1
		c0,0,0,0.1,0,0.1c0.2,0,0.5,0.1,0.4,0.4c0.1-0.1,0.2-0.1,0.2-0.2c0-0.1,0.1-0.3,0-0.4c0-0.1-0.1-0.1-0.2-0.2c0-0.1,0-0.1,0-0.2
		c0-0.1-0.1-0.1-0.1-0.1c0-0.1-0.1-0.3,0.1-0.3c0,0,0,0,0-0.1c-0.1,0-0.1,0-0.2,0c0,0,0-0.1,0-0.1c0-0.1,0-0.2-0.1-0.3
		c-0.1-0.1-0.2-0.1-0.3-0.1c-0.1-0.1-0.1-0.1-0.2-0.1c0,0-0.1,0-0.2,0c-0.2-0.2-0.3-0.4-0.4-0.6c-0.1-0.1-0.2-0.1-0.3,0
		C32.6,12.2,32.6,12.2,32.6,12.3C32.6,12.2,32.6,12.2,32.6,12.3C32.6,12.2,32.6,12.3,32.6,12.3"/>
	<path class="st1" d="M31.7,12.6c-0.1,0.1,0,0.2,0,0.2c0.1,0,0.2,0,0.4,0c0.1,0,0.1-0.1,0.1-0.1c0.1-0.1,0.2,0,0.4-0.1
		c0,0.1,0,0.1,0.1,0.1c0-0.1,0-0.2-0.1-0.2c-0.1-0.1-0.1-0.2-0.2-0.3c0,0-0.1,0-0.1,0c0,0.2-0.1,0.1-0.3,0.2c0,0,0,0,0,0.1
		c0,0,0,0,0,0c0,0,0,0,0-0.1c-0.1,0-0.1,0-0.2,0C31.8,12.5,31.7,12.6,31.7,12.6"/>
	<path class="st1" d="M29.4,8.7c-0.1-0.2-0.3-0.4-0.2-0.7c0.3,0.1,0.6,0.1,0.9,0c0.2-0.1,0.5,0,0.7-0.1c0,0,0-0.1,0-0.2
		c-0.3,0.1-0.5-0.2-0.7-0.1c-0.3,0.2-0.6,0.2-0.9,0.3c-0.2,0.1-0.9,0-0.9,0.4c0.3,0,0.7,0,0.9,0.3C29.2,8.7,29.3,8.7,29.4,8.7"/>
	<path class="st1" d="M30.4,10.2c0.1,0.2,0.3,0.2,0.4,0.2c0-0.1,0-0.1-0.1-0.2C30.6,10.2,30.5,10.2,30.4,10.2"/>
	<path class="st1" d="M30.1,10.7c-0.1,0,0,0.1,0.1,0.2C30.2,10.8,30.3,10.6,30.1,10.7"/>
	<path class="st1" d="M29.9,10.4C29.9,10.4,29.9,10.4,29.9,10.4C30,10.4,30,10.4,29.9,10.4c0.1-0.1,0-0.2-0.1-0.2c0,0,0,0.1,0,0.1
		C29.8,10.3,29.8,10.3,29.9,10.4"/>
	<path class="st1" d="M30.8,11.5C30.8,11.5,30.8,11.6,30.8,11.5C30.9,11.5,30.9,11.5,30.8,11.5L30.8,11.5c0.1-0.1,0.1-0.2,0.1-0.2
		c0,0,0,0-0.1,0C30.7,11.4,30.8,11.5,30.8,11.5"/>
	<path class="st1" d="M31.1,11.5c0,0,0,0.1,0,0.1C31.2,11.7,31.2,11.6,31.1,11.5C31.2,11.6,31.2,11.6,31.1,11.5
		C31.2,11.5,31.1,11.6,31.1,11.5"/>
	<path class="st1" d="M31,11.8C31,11.8,31.1,11.8,31,11.8C31.1,11.7,31.1,11.7,31,11.8c0.1-0.1,0.1-0.1,0.1-0.1c0,0,0,0,0,0
		c0-0.1-0.1-0.1-0.2,0C30.8,11.7,31,11.7,31,11.8"/>
	<path class="st1" d="M31.1,11.8C31.1,11.8,31.1,11.8,31.1,11.8c0,0.1,0.1,0.2,0.2,0.1c0,0,0.1-0.1,0-0.1
		C31.3,11.8,31.2,11.8,31.1,11.8L31.1,11.8z"/>
	<path class="st1" d="M31.6,12C31.6,12,31.6,12,31.6,12c0-0.1-0.1-0.2-0.1-0.2c0,0-0.1,0.1,0,0.1C31.5,12,31.5,12,31.6,12"/>
	<path class="st1" d="M31.7,12.3c0,0,0.1,0,0.1,0c0,0,0,0,0-0.1c0,0,0,0,0,0c0,0,0-0.1,0-0.1c0,0-0.1,0-0.1,0c0,0,0,0,0,0
		c0,0-0.1,0-0.1,0c0,0,0,0.1,0,0.1C31.6,12.2,31.7,12.3,31.7,12.3"/>
	<path class="st1" d="M31.5,12.5C31.5,12.5,31.5,12.5,31.5,12.5c0.1-0.1,0.1-0.1,0-0.2c0,0,0,0-0.1,0c0,0,0,0.1-0.1,0.1
		C31.4,12.5,31.4,12.5,31.5,12.5"/>
	<path class="st1" d="M31.2,7.5C31.2,7.5,31.2,7.5,31.2,7.5C31.2,7.5,31.2,7.5,31.2,7.5c-0.1-0.1-0.1-0.1-0.2-0.1
		C31.1,7.5,31.1,7.6,31.2,7.5"/>
	<path class="st1" d="M34.6,10c0.1,0.1,0.2,0,0.2,0.1c0.1,0.1,0.1,0.2,0.2,0.2c0.1,0,0.1,0,0.1-0.1c0-0.2,0-0.4-0.2-0.4
		c-0.2,0-0.3,0-0.5,0c-0.1,0-0.1,0.1-0.1,0.2C34.4,9.9,34.5,9.9,34.6,10"/>
	<path class="st1" d="M38.7,15.2c-0.1-0.1-0.1-0.3-0.2-0.4c-0.1-0.1-0.2-0.1-0.3-0.2c0-0.1,0-0.2,0-0.2c0,0-0.1-0.1-0.1-0.1
		C38,14.1,38,14,37.8,14c0-0.2-0.1-0.2-0.3-0.3c0,0,0-0.1,0-0.1c0-0.1-0.1-0.1-0.1-0.1c0,0-0.1,0-0.1,0c-0.1-0.1-0.2-0.2-0.2-0.3
		c0-0.1-0.2-0.2-0.3-0.3c0,0-0.1-0.1-0.1-0.1c-0.1,0-0.2,0-0.2-0.1c0-0.2-0.2-0.3-0.3-0.4c-0.2-0.1,0-0.4-0.1-0.7
		c0-0.1-0.1-0.1-0.2-0.1c0,0-0.1,0-0.1-0.1c-0.1-0.1,0-0.3-0.1-0.4c-0.1-0.2-0.3-0.3-0.4-0.5c-0.1-0.1-0.2-0.1-0.3-0.1
		c0,0,0,0-0.1,0c0,0-0.1-0.1-0.1-0.1c-0.1-0.1-0.2-0.2-0.3-0.2c-0.2-0.1-0.4,0-0.6-0.1c-0.2,0-0.4,0-0.5,0.2
		c-0.2,0.1-0.3,0.2-0.5,0.2c-0.1,0,0,0.1,0,0.2c0,0.1-0.2,0.2-0.1,0.2c0,0,0,0,0,0c0,0,0.1,0,0.2,0c0.1,0,0.1,0.1,0.1,0.1
		c0.1,0.1,0.2,0.2,0.2,0.3c0,0-0.1,0.1,0,0.2c0.1,0.1,0.1,0.2,0.1,0.3c0,0.1,0.1,0,0.1,0c0.2,0.1,0.2,0.3,0.1,0.4c0,0.1,0,0.2,0,0.3
		c0.1,0.2,0.1,0.4,0.2,0.5c0,0,0.1-0.1,0.1-0.1c0.1,0,0.1-0.1,0.2-0.1c0.2-0.2,0.4,0.2,0.5,0.3c0.1,0.2,0,0.4,0.1,0.6
		c0.1,0.2,0.2,0.3,0.3,0.4c0,0,0,0.1,0.1,0.2c0,0,0.1,0.1,0.1,0.1c0,0,0-0.1,0.1-0.1c0.1,0,0.1,0,0.1,0c0.2,0.2,0.2,0.6,0.5,0.6
		c0,0,0,0.1,0.1,0.1c0.1,0,0.1-0.1,0.2,0c0,0.1,0.1,0.2,0.1,0.2c0.1,0,0.2,0,0.3,0c0.1,0,0.1,0.1,0.2,0.2c0,0,0.1,0.1,0.1,0.1
		c0.2,0.2,0.3,0.5,0.5,0.7c0.1,0.1,0.2,0.2,0.3,0.1c0,0,0-0.1,0-0.1c0.1,0,0.2-0.1,0.2-0.2c0.1-0.1,0.2-0.2,0.3-0.3c0,0,0,0,0,0
		c0.1-0.1,0.2-0.1,0.3-0.2C38.8,15.4,38.7,15.2,38.7,15.2"/>
	<path class="st1" d="M34.7,14.7C34.7,14.7,34.7,14.7,34.7,14.7c0.1,0,0.1,0,0.1,0L34.7,14.7z"/>
	<path class="st1" d="M34.5,15.3c0,0.1,0.1,0.1,0.2,0.1c0.1,0.1,0.1,0.2,0.2,0.2c0.1,0.1,0.1-0.1,0.1-0.2c0,0,0.1,0,0.1,0
		c0.1-0.1,0-0.3-0.1-0.4c-0.1-0.1-0.1-0.2-0.3-0.2c-0.1,0-0.1,0-0.2,0.1c-0.1,0.1,0,0.2,0,0.3C34.5,15.2,34.5,15.2,34.5,15.3"/>
	<path class="st1" d="M35.2,15.7c-0.1,0.2,0,0.4,0,0.6c0,0.1-0.2,0.1-0.2,0.2c0,0-0.1,0.1,0,0.2c0,0.1,0.2,0.1,0.3,0.2
		c0.2,0.1,0.5,0.3,0.6,0.6c0.1,0.1,0.1,0.2,0.1,0.3c0.1,0.1,0.2,0.1,0.2,0.2c0,0.1,0.1,0.1,0.1,0c0.1-0.1,0.1-0.3,0-0.4
		c-0.1-0.1-0.1-0.1-0.1-0.2c0-0.3-0.1-0.5-0.2-0.8c-0.1-0.1-0.2-0.2-0.3-0.3c0,0,0-0.1,0-0.1c0-0.1,0.1-0.1,0.1-0.2
		c0-0.1-0.1-0.2-0.2-0.3c0,0,0,0-0.1,0l0.1,0C35.4,15.6,35.3,15.6,35.2,15.7"/>
	<path class="st1" d="M36.7,17.1c0-0.1,0-0.2,0-0.2c0-0.2-0.2-0.2-0.3-0.2c-0.1,0-0.1,0-0.1,0c0,0.1,0,0.1,0,0.2
		c0.2,0.3,0.2,0.6,0.3,1c0,0.1,0.3,0,0.3-0.1c0-0.1,0-0.1,0-0.2c0-0.1-0.1-0.1-0.1-0.2C36.8,17.3,36.7,17.2,36.7,17.1"/>
	<path class="st1" d="M36.3,16.2c-0.1,0.1,0,0.2,0,0.3h0c0.1,0,0.1,0,0.1-0.1C36.3,16.4,36.4,16.3,36.3,16.2
		C36.3,16.2,36.3,16.2,36.3,16.2"/>
	<path class="st1" d="M36.3,16c0-0.1,0-0.1-0.1-0.1c0,0.1-0.1,0.1-0.2,0.1c-0.1,0.1,0,0.1,0.1,0.2c0,0,0,0,0,0
		C36.3,16.2,36.4,16.1,36.3,16C36.3,16,36.3,16,36.3,16"/>
	<path class="st1" d="M35.8,15.5c0.1,0.1,0,0.2,0.1,0.2c0.1,0,0.2,0.1,0.3,0c0.1,0,0-0.1-0.1-0.1c0,0,0-0.1,0-0.1c0,0,0,0-0.1,0
		c-0.1-0.1,0.1-0.1,0-0.2c0,0,0-0.1,0-0.1c0,0-0.1,0-0.1,0c0,0,0,0.1,0,0.1C35.8,15.4,35.7,15.5,35.8,15.5"/>
	<path class="st1" d="M35.7,14.9c-0.1,0-0.2,0-0.2-0.1c0,0-0.1,0-0.1,0c0,0,0,0,0,0c0,0-0.1,0.1,0,0.1c0.1,0,0.1,0.1,0.1,0.1
		c0,0.1,0.1,0,0.1,0.1c0,0.1,0.1,0.1,0.1,0c0,0,0-0.1,0-0.1c0,0,0-0.1,0,0C35.7,15,35.8,14.9,35.7,14.9"/>
	<path class="st1" d="M28.6,19.5L28.6,19.5C28.7,19.4,28.7,19.4,28.6,19.5c0.1-0.1,0-0.2,0-0.2c0,0-0.1,0-0.1,0.1h0
		C28.6,19.4,28.6,19.4,28.6,19.5"/>
	<path class="st1" d="M36.4,18.2c-0.1,0-0.3,0-0.4,0.1c-0.2,0.1-0.3,0.4-0.4,0.6c-0.1,0.1-0.2,0.2-0.4,0.2c0,0-0.1,0-0.1-0.1
		c0-0.1,0-0.1,0-0.2c0,0,0.1-0.1,0.1-0.1c0.1-0.1,0-0.2,0-0.3c-0.1-0.2-0.3-0.4-0.5-0.3c-0.2,0-0.3,0.3-0.5,0.5h0
		c-0.1-0.1-0.2-0.2-0.2-0.3c0,0,0,0,0-0.1c0.1,0,0.2,0.2,0.2,0.1c0.1-0.1,0-0.2-0.1-0.2c-0.1,0-0.1-0.1-0.2-0.1
		c-0.1,0-0.1-0.1-0.2-0.2c0-0.1,0-0.3-0.1-0.3c-0.1,0-0.2,0-0.3-0.1c0,0-0.1,0-0.2,0c0,0,0-0.1,0-0.1c0.1,0,0.3,0,0.2-0.2
		c0-0.1-0.1-0.1-0.2-0.1c0,0-0.1,0-0.1,0c0,0,0,0.1,0,0.1c0,0.1,0,0.2,0,0.2c-0.1,0.1-0.2,0.1-0.3,0.1c0,0-0.1,0-0.1,0
		c-0.1,0-0.2-0.1-0.3-0.1c-0.1,0.1-0.1,0.2-0.2,0.2c-0.1,0-0.1,0-0.2,0.1c-0.1,0-0.1,0.2,0,0.3c0,0,0,0.1,0,0.1
		c-0.1,0-0.1-0.1-0.1-0.1c0-0.1-0.1-0.2-0.1-0.3c0-0.1,0.1-0.2,0.2-0.3c0-0.1,0-0.1,0-0.2c-0.1-0.1-0.1-0.1-0.2-0.1
		c-0.2,0.1-0.3,0.4-0.5,0.3c-0.1,0-0.2-0.2-0.3-0.2c-0.1,0-0.1-0.1-0.2,0c-0.1,0.1-0.3,0.2-0.5,0.3c-0.1,0.1-0.3,0.2-0.3,0.4
		c-0.1,0.2-0.4,0.3-0.6,0.1c-0.1-0.1-0.2-0.2-0.3-0.2c-0.1,0-0.2,0.2-0.3,0.2c-0.1,0-0.1,0-0.2-0.1c0,0,0-0.1,0-0.1
		c0.2-0.1,0.4-0.2,0.6-0.3c0.1,0,0.1-0.1,0.1-0.2c0,0,0,0,0-0.1c0-0.1,0-0.1,0-0.1c-0.3,0-0.5,0.2-0.6,0.4c0,0,0,0.1-0.1,0.1
		c-0.2,0-0.3,0.1-0.5,0c0,0-0.1-0.2-0.1-0.2c-0.1,0.1-0.1,0.2-0.2,0.2c0,0-0.1,0.1-0.1,0.1c-0.1,0.1,0.1,0.3,0,0.4
		c0,0.1-0.2,0.1-0.3,0.1c0,0,0,0.1,0,0.2c0,0.1,0.1,0,0.1,0.1c0.1,0.1,0.1,0.3,0.2,0.3c0.2,0.1,0.3,0,0.5,0.1c0.1,0,0.2,0.1,0.3,0.2
		c0,0.1,0.1,0.1,0.1,0.2c0,0,0,0.1,0.1,0.1c0.1,0,0.1,0,0.2,0c0.1,0,0,0.1,0.1,0.2c0,0.1,0,0.2,0.1,0.4c0,0,0,0.2-0.1,0.2
		c0,0-0.1,0-0.1,0.1c0,0.1,0,0.2,0,0.3c0,0,0.1,0,0.1,0c0.1,0.1,0.1,0.2,0.2,0.3c0,0,0.1,0.1,0.1,0.1c-0.1,0-0.1,0.1-0.1,0.1
		c0,0,0.1,0.1,0.2,0c0.1,0,0.1-0.1,0.2-0.1c0,0,0.1,0,0.1-0.1c0,0,0.1,0.1,0.1,0.2c-0.1,0.1-0.3,0-0.4,0.1c-0.1,0-0.1,0-0.2,0.1
		c0,0,0,0.1,0.1,0.1c0.2,0.1,0.1,0.4-0.1,0.6c0,0,0,0.1,0,0.2c0,0-0.1,0-0.1,0c-0.2,0-0.5-0.1-0.7,0c-0.1,0-0.1,0.1-0.1,0.2h0
		c-0.1,0-0.1,0.1-0.1,0.1c0,0,0,0.1,0,0.2c-0.2,0.2-0.2,0.5-0.3,0.7c0,0.1,0.1,0.1,0.1,0.1c0.1,0,0.1-0.1,0.2-0.1
		c0.1,0,0.1,0.2,0.1,0.2c0,0.1,0.2,0.1,0.2,0c0-0.1,0-0.2,0.1-0.3c0-0.1-0.1-0.2-0.1-0.3c0-0.1,0-0.2,0.1-0.2c0,0,0.1,0,0.1,0.1
		c0,0.1,0,0.1,0,0.2c0,0.1,0,0.2,0,0.2c0,0,0.1,0.1,0,0.2c0,0,0,0.1-0.1,0.1c0,0.1,0,0.2,0,0.2c-0.1,0.1-0.1,0.1-0.1,0.2
		c-0.2,0-0.4-0.1-0.3-0.3c-0.1,0-0.1,0-0.2,0.1c0,0.1,0,0.2,0,0.3c-0.1,0.1-0.1,0.2-0.2,0.3c0,0,0,0,0,0.1c-0.1,0.1-0.2,0.2-0.3,0.2
		c0,0,0,0,0,0c-0.1,0.1-0.2,0-0.2,0.1c0,0.1,0.1,0.2,0.1,0.3c0,0.1,0,0.1-0.1,0.2c-0.1,0-0.2,0-0.4,0c0,0,0,0,0,0
		c0,0.1,0,0.2-0.1,0.3c-0.1,0.1,0,0.2,0.1,0.2c0.1,0.1,0.1,0.2,0.2,0.2c0.1,0,0.1,0.1,0.2,0.1c0.1,0,0.2-0.1,0.2-0.2
		c0-0.1,0.1,0,0.2,0c0,0,0.1,0,0.1,0c0.1-0.1,0-0.2,0-0.2c0.1-0.1,0.3-0.3,0.4-0.4c0.1,0,0.1-0.1,0.2-0.1c0.1,0,0.1,0.1,0.2,0.1
		c0.1,0,0.1,0.1,0.2,0.1c0,0,0.1,0,0.1,0c0.1,0,0.2,0.2,0.3,0.2c0,0,0,0,0,0c0-0.1,0-0.2-0.1-0.3c-0.1-0.1-0.2-0.2-0.3-0.2
		c0,0,0-0.1,0-0.1c0,0,0,0,0,0c0.1,0.1,0.1,0.1,0.2,0.1c0.1,0.1,0.1,0.2,0.2,0.3c0.1,0,0.1,0.1,0.2,0.1c0.1,0,0.2,0,0.3-0.1
		c0-0.1,0-0.1-0.1-0.1c-0.1-0.1,0-0.1,0.1-0.2c0.1-0.1,0-0.2,0-0.3c0,0,0-0.1,0-0.1c0,0,0,0,0,0c0.1-0.1,0-0.2,0-0.4c0,0,0,0,0,0
		c0,0.1,0.1,0.1,0.2,0.1c0.1,0,0.2-0.1,0.2-0.2c0.1-0.1,0.3,0,0.3,0.1c0,0.1,0,0.2-0.1,0.2c-0.2,0-0.4,0.1-0.5,0.2c0,0,0,0-0.1,0.1
		c-0.1,0.1-0.1,0.1-0.1,0.2c0,0-0.1,0.1-0.1,0.1c0.1,0,0.1,0.1,0.1,0.1c0.1,0,0.2,0,0.3-0.1c0,0,0-0.1,0-0.2c0.1,0,0.1-0.1,0.2-0.1
		c0.2,0,0.3,0.2,0.2,0.3c0,0-0.1,0-0.1,0c-0.1,0.1-0.2,0.3-0.3,0.3c-0.2,0.1-0.5,0.1-0.7,0.2c-0.1,0.1-0.1,0.2-0.2,0.2
		c-0.1,0-0.2,0.1-0.3,0v0c0,0.1-0.2,0-0.3,0c0,0,0-0.1-0.1-0.2c0,0-0.1,0-0.1,0c0,0,0-0.1,0-0.1c-0.3,0-0.5,0-0.8,0
		c-0.1,0-0.1,0.1-0.1,0.1c0,0-0.1,0.1-0.1,0.1c-0.1,0.1-0.2,0.1-0.3,0.1c-0.1,0-0.2,0-0.3,0.1c-0.2,0-0.3,0.2-0.4,0.3
		c-0.1,0.1-0.2,0.1-0.3,0.1c0,0,0,0.1,0,0.1c-0.2,0-0.3,0.3-0.4,0.5c0,0.1,0,0.1,0,0.2c-0.1,0.1-0.1,0.3-0.3,0.4c0,0,0,0.1,0,0.1
		c0.1,0.2,0.3,0.3,0.5,0.5c0,0.1,0.1,0.1,0.1,0.1c0.1,0.1,0.1,0.2,0.2,0.4c0.1,0.2,0.3,0.2,0.5,0.2c0.1,0,0.2,0.1,0.2,0.1
		c0.2,0,0.5,0.1,0.7,0c0.3,0.1,0.7,0,1,0.1c0.1,0,0.1,0.1,0.1,0.2c0.1,0.1,0.2,0.3,0.3,0.4c0.1,0.1,0.3,0.1,0.4,0.1
		c0,0,0,0.1,0.1,0.2c0,0.1,0,0.1,0.1,0.2c0.1,0.1,0.1,0.1,0.1,0.2c0,0.1-0.1,0.2-0.1,0.4c0,0.1,0,0.1,0,0.2c0.2,0.2,0.4,0.4,0.6,0.5
		c0,0,0.1,0,0,0.1c0.1,0,0.1,0.1,0.2,0.2c0,0.1,0,0.1,0.1,0.2c0.1,0.1,0.2,0.2,0.3,0.3c0.1,0.1,0.3,0.1,0.4,0.1c0,0,0.1,0,0.1,0.1
		c0.1,0,0.3,0.1,0.4,0c0.1-0.1,0.1-0.2,0.2-0.2c0.1-0.1,0.3-0.1,0.4-0.1c0,0,0.1,0,0.1-0.1c0-0.1,0.1-0.1,0.1-0.2
		c0.1,0,0.2-0.1,0.3-0.1c0.2-0.1,0.3-0.3,0.5-0.4c0.2-0.1,0.4-0.1,0.5-0.2c0.1-0.2,0-0.4,0-0.6c0-0.1,0.1-0.2,0.1-0.3
		c0-0.2,0-0.3,0-0.5c0-0.1-0.1-0.2-0.1-0.3c0-0.1,0.1-0.1,0.2-0.1c0.1-0.1,0.1-0.3,0.2-0.4c0,0,0.1,0,0.1-0.1c0.1,0,0-0.1,0-0.2
		c-0.1,0-0.1-0.1-0.1-0.1c-0.1-0.2-0.3-0.4-0.5-0.5c-0.1,0-0.1-0.1-0.1-0.1c0,0,0-0.1,0-0.1c-0.1,0,0-0.1-0.1-0.1h0.1c0,0,0,0,0,0
		c0,0,0,0,0,0c0.1-0.1,0.1-0.3,0.2-0.4c0,0,0.1,0,0.1-0.1c0-0.1,0-0.2,0-0.3c-0.1-0.1,0-0.3,0-0.4c0-0.3,0-0.5-0.1-0.8
		c0-0.1-0.1-0.1-0.2-0.1c0,0,0,0.1-0.1,0.1c0,0,0,0.1-0.1,0.2c0,0.1-0.2,0.1-0.2,0.2c0,0.1,0,0.1-0.1,0.2c0,0-0.1,0.1-0.1,0.1
		C33.1,26,33,26,33,26.1c-0.1,0-0.2,0-0.3,0c-0.6-0.2-1.1-0.4-1.6-0.5c0,0,0,0,0,0c0.1,0,0.2,0,0.3,0c0.1,0,0-0.1,0-0.1
		c0.1,0,0.2,0.1,0.3,0.2c0.2,0.1,0.5,0.1,0.7,0.2c0.2,0,0.3,0.2,0.5,0.2c0.2,0,0.3-0.1,0.4-0.1c0,0,0,0,0-0.1
		c0.1-0.1,0.2-0.2,0.2-0.3c0-0.1,0-0.2,0-0.3c0,0,0.1-0.1,0.1-0.1c0-0.1,0-0.2,0-0.4c0.1,0,0.1-0.1,0.1-0.1c0,0,0,0,0-0.1
		c0-0.1,0-0.1,0-0.2c0-0.2,0-0.4-0.1-0.5c0-0.1-0.1-0.1-0.2-0.1c0,0,0,0.1-0.1,0.1c-0.1,0-0.2,0-0.2,0.1C33,24,33,24.1,33,24.1
		c-0.1,0.1-0.2,0.2-0.4,0.2c-0.1,0-0.2,0-0.2-0.1c-0.1-0.2,0.2-0.2,0.4-0.2c0,0,0.1-0.1,0.1-0.1c0-0.1,0.1-0.2,0.2-0.2
		c0.1,0,0.1,0,0.2,0c0.1,0,0.1-0.1,0.2-0.1c0,0,0-0.1,0.1-0.2c0-0.1,0.1-0.1,0.2-0.2c0.1-0.2,0.1-0.4,0.2-0.6c0.1-0.1,0,0.1,0.1,0.2
		c0.1,0.1,0.2,0.1,0.3,0c0.1-0.1,0-0.2,0.1-0.2c0,0,0.1,0,0.1,0c0.1,0,0.1,0.1,0.2,0.1c0,0,0.1-0.1,0.2-0.1c0.1,0,0.2,0,0.3,0
		c0.2-0.1,0.6,0,0.6-0.2c0-0.3-0.3-0.6-0.6-0.7c-0.2-0.1-0.1-0.4-0.3-0.6c-0.1,0,0-0.1-0.1-0.2c0,0,0,0-0.1-0.1c0,0-0.1-0.1-0.1-0.1
		c0-0.2,0-0.3,0-0.5c0-0.1,0.1-0.1,0.2-0.1c0.1-0.1,0.2-0.1,0.2-0.2c0-0.1,0-0.3,0-0.4c0,0,0.1-0.1,0.1-0.1c0.2,0,0.5,0.1,0.7-0.1
		c0.1,0,0.1-0.1,0.1-0.2c0.2-0.2,0.4-0.4,0.4-0.8C36.3,18.4,36.4,18.4,36.4,18.2C36.5,18.3,36.5,18.2,36.4,18.2 M31.9,23.6
		C31.9,23.6,31.9,23.7,31.9,23.6c-0.1,0.1-0.1,0.1-0.2,0c0-0.1-0.1-0.1-0.1-0.2c-0.1,0-0.1,0-0.1,0.1c-0.1,0-0.1,0-0.2,0
		c0-0.1-0.1-0.1-0.1-0.2c-0.1-0.1,0-0.2,0.1-0.2c0.1,0,0.1,0,0.1,0.1c0,0,0,0,0,0c0,0,0,0,0,0.1c0.1,0.1,0.1,0,0.2,0
		c0.1,0,0.2,0,0.3,0c0,0,0,0,0,0C31.9,23.4,32,23.5,31.9,23.6C31.9,23.6,31.9,23.6,31.9,23.6"/>
	<path class="st1" d="M22.6,41c1.3-1.9,5.2-3.9,9-3.9c3.8,0,8,2.2,9.6,1c0,0-1.7,1.4-5.1,1.4c-3.4,0-4.7-1.7-7-1.7
		c-2.4,0-4.8,1.9-5.9,3.5L22.6,41z"/>
	<path class="st1" d="M34.7,36.8c0,0,1.1-0.7,1.7-1.9c0.6-1.2,2.1-3.2,3.7-4.4c0,0-1.7,5.5-3.5,5.7c0,0-0.3,0.2,0.2,0.1
		c0.5-0.1,2.8-0.9,3.6-1.1c0.8-0.1,2.8-0.6,3.3-1.1c0.5-0.4,0.8-0.4,0.8-0.4s-2.2,3.7-6.2,3.7C38.3,37.4,36.3,37.3,34.7,36.8"/>
	<path class="st1" d="M39.4,34.9c0,0,0.4-0.6,0.5-1.7c0.1-1.1,0.8-3.6,2.7-6.3c0,0,0.3,4.3-1.9,7c0,0-0.1,0.4,0.1,0.1
		c0.3-0.3,1.6-1.9,4.6-3.9c0,0,1.5-1.3,1.6-1.7C47,28.3,45.8,34.5,39.4,34.9"/>
	<path class="st1" d="M43.1,30.8c0,0,0.2-0.7,0.2-1.3c0-0.6-0.3-2.6-0.3-3.5c0-0.9,0.1-2.6,0.8-3.7c0,0,0,1,0.2,1.4
		c0.2,0.4,0.5,2.2,0.5,2.5c0,0.2-0.1,1.7-0.4,2.5c0,0,0.3-0.2,0.6-0.8c0.3-0.6,1.1-1.7,2.2-2.8C48,24,48.3,23,48.3,23s0.3,2-1.2,4.1
		c-1.5,2.1-2.1,1.8-2.9,2.6C44.2,29.7,43.2,30.8,43.1,30.8"/>
	<path class="st1" d="M45.4,25.9c0,0,0-1.2-0.3-1.6c-0.2-0.4-1.6-2.8-1.3-5.9c0,0,0.2-0.2,0.6,1c0.4,1.2,1,1.6,1.2,2.8
		c0.2,1.2,0.2,1.7,0.2,1.7s0.1,0.2,0.1,0c0-0.1,0.1-1.8,0.8-3.2c0.7-1.5,1.6-2.9,1.5-3.9c0,0,0.4,0,0.3,1.6
		C48.6,20,48.2,22.8,45.4,25.9"/>
	<path class="st1" d="M46.2,21.1c0,0-0.5-1.1-0.8-1.5c-0.3-0.4-2.7-3.7-2.9-5.3c0,0,0.2-0.1,0.4,0.3c0.2,0.4,1.3,1.5,1.5,1.7
		c0.2,0.2,1.4,1.4,1.5,2.8c0,0,0.1,0.1-0.1-2.1c-0.2-2.2,0.7-3.7-0.1-5.3c0,0,1.1,0.2,1.7,4.8c0,0,0,1.6-0.9,3.6
		C46.6,20,46.3,21.1,46.2,21.1"/>
	<path class="st1" d="M45.3,16c0,0-0.9-0.9-1.6-1.3c-0.7-0.4-2.9-2.6-3.3-4.3c0,0,0.1-0.2,0.8,0.7c0.5,0.7,1.1,0.4,2.7,2.4
		c0,0,0.2,0.5,0.3,0.4c0.1,0-0.1-0.5-0.1-0.5S44,12.2,44,11.8c0-0.4-0.7-2.8-0.9-3.1c0,0,2.2,1.2,2.5,4.7
		C45.5,13.4,45.4,15.9,45.3,16"/>
	<path class="st1" d="M43.5,12.3c0,0,0.1-3-3.8-4.6c0,0,1.4,2.8,2.4,3.5C43.1,11.9,43.5,12.3,43.5,12.3"/>
	<path class="st1" d="M33.3,41c-1.3-1.9-5.2-3.9-9-3.9c-3.8,0-8,2.2-9.6,1c0,0,1.7,1.4,5.1,1.4c3.4,0,4.7-1.7,7-1.7
		c2.3,0,4.8,1.9,5.9,3.5L33.3,41z"/>
	<path class="st1" d="M21.2,36.8c0,0-1.1-0.7-1.7-1.9c-0.6-1.2-2.1-3.2-3.7-4.4c0,0,1.7,5.5,3.5,5.7c0,0,0.3,0.2-0.2,0.1
		c-0.5-0.1-2.8-0.9-3.6-1.1c-0.8-0.1-2.8-0.6-3.3-1.1c-0.4-0.4-0.8-0.4-0.8-0.4s2.2,3.7,6.2,3.7C17.6,37.4,19.6,37.3,21.2,36.8"/>
	<path class="st1" d="M16.5,34.9c0,0-0.4-0.6-0.5-1.7c-0.1-1.1-0.8-3.6-2.7-6.3c0,0-0.3,4.3,1.9,7c0,0,0.1,0.4-0.1,0.1
		c-0.3-0.3-1.6-1.9-4.6-3.9c0,0-1.5-1.3-1.6-1.7C8.9,28.3,10.1,34.5,16.5,34.9"/>
	<path class="st1" d="M12.8,30.8c0,0-0.2-0.7-0.2-1.3c0-0.6,0.3-2.6,0.3-3.5c0-0.9-0.1-2.6-0.8-3.7c0,0,0,1-0.2,1.4
		c-0.2,0.4-0.5,2.2-0.5,2.5c0,0.2,0.1,1.7,0.4,2.5c0,0-0.3-0.2-0.6-0.8c-0.3-0.6-1.1-1.7-2.2-2.8C7.9,24,7.6,23,7.6,23
		s-0.3,2,1.2,4.1c1.5,2.1,2.1,1.8,2.9,2.6C11.8,29.7,12.7,30.8,12.8,30.8"/>
	<path class="st1" d="M10.5,25.9c0,0,0.1-1.2,0.3-1.6c0.2-0.4,1.6-2.8,1.3-5.9c0,0-0.2-0.2-0.6,1c-0.4,1.2-1,1.6-1.2,2.8
		C10,23.4,10,23.9,10,23.9s-0.1,0.2-0.1,0c0-0.1-0.1-1.8-0.8-3.2c-0.7-1.5-1.6-2.9-1.5-3.9c0,0-0.4,0-0.3,1.6
		C7.3,20,7.7,22.8,10.5,25.9"/>
	<path class="st1" d="M9.7,21.1c0,0,0.5-1.1,0.8-1.5c0.3-0.4,2.7-3.7,2.9-5.3c0,0-0.2-0.1-0.4,0.3c-0.2,0.4-1.3,1.5-1.5,1.7
		c-0.2,0.2-1.4,1.4-1.5,2.8c0,0-0.1,0.1,0.1-2.1c0.2-2.2-0.7-3.7,0.1-5.3c0,0-1.1,0.2-1.7,4.8c0,0,0,1.6,0.9,3.6
		C9.3,20,9.6,21.1,9.7,21.1"/>
	<path class="st1" d="M10.6,16c0,0,0.9-0.9,1.6-1.3c0.7-0.4,2.9-2.6,3.3-4.3c0,0-0.1-0.2-0.8,0.7c-0.5,0.7-1.1,0.4-2.7,2.4
		c0,0-0.2,0.5-0.3,0.4c-0.1,0,0.1-0.5,0.1-0.5s0.3-1.3,0.3-1.7c0-0.4,0.7-2.8,0.9-3.1c0,0-2.2,1.2-2.5,4.7
		C10.4,13.4,10.5,15.9,10.6,16"/>
	<path class="st1" d="M12.4,12.3c0,0-0.1-3,3.8-4.6c0,0-1.4,2.8-2.4,3.5C12.8,11.9,12.4,12.3,12.4,12.3"/>
</g>
</svg>
