<?xml version="1.0" encoding="utf-8"?>
<!-- Generator: Adobe Illustrator 21.0.2, SVG Export Plug-In . SVG Version: 6.00 Build 0)  -->
<svg version="1.1" id="Layer_1" xmlns="http://www.w3.org/2000/svg" xmlns:xlink="http://www.w3.org/1999/xlink" x="0px" y="0px"
	 viewBox="0 0 41.5 41.5" style="enable-background:new 0 0 41.5 41.5;" xml:space="preserve">
<style type="text/css">
	.st0{fill:#3D5D77;}
	.st1{fill:#DFEDF1;}
	.st2{fill:#0AC7D9;}
	.st3{opacity:0.5;fill:#9B9C9E;}
	.st4{opacity:0.5;fill:none;stroke:#9B9C9E;stroke-miterlimit:10;}
	.st5{fill:none;stroke:#0AC7D9;stroke-miterlimit:10;}
	.st6{fill:none;stroke:#DFEDF1;stroke-width:1.2831;stroke-miterlimit:10;}
	.st7{fill:#90A3AF;}
	.st8{fill:#FFFFFF;}
	.st9{fill:none;stroke:#0AC7D9;stroke-width:0.825;stroke-miterlimit:10;}
	.st10{opacity:0.5;fill:none;stroke:#CCCCCC;stroke-width:0.25;stroke-miterlimit:10;}
	.st11{fill:#FFFFFF;stroke:#3D5D77;stroke-width:0.75;stroke-miterlimit:10;}
	.st12{fill:#FFDD71;}
	.st13{fill:#6997B7;}
	.st14{opacity:0.5;fill:none;stroke:#0AC7D9;stroke-miterlimit:10;}
	.st15{fill:none;stroke:#3D5D77;stroke-width:1.5;stroke-miterlimit:10;}
	.st16{fill:#1C304A;}
	.st17{fill:#FFF6DE;}
	.st18{fill:none;stroke:#FFDD71;stroke-miterlimit:10;}
	.st19{fill:none;stroke:#FFDD71;stroke-width:0.825;stroke-miterlimit:10;}
	.st20{fill:#F2F2F2;}
	.st21{fill:none;stroke:#666666;stroke-width:2;stroke-miterlimit:10;stroke-dasharray:1.5,3;}
	.st22{fill:#808080;}
	.st23{fill:#333333;}
	.st24{fill:#C9B57D;}
	.st25{fill:#A4B8BC;}
	.st26{fill:none;stroke:#CCCCCC;stroke-width:0.25;stroke-miterlimit:10;}
	.st27{fill:none;stroke:#3D5D77;stroke-miterlimit:10;}
	.st28{fill:none;stroke:#1C304A;stroke-width:0.9576;stroke-miterlimit:10;}
</style>
<path class="st2" d="M30.8,4H10.7C7,4,4,7,4,10.7v20.2c0,3.7,3,6.7,6.7,6.7h20.2c3.7,0,6.7-3,6.7-6.7V10.7C37.6,7,34.5,4,30.8,4z
	 M18.1,32.1L18.1,32.1L18.1,32.1l-4.8,0v-3.5l-4.8-6.4c-0.2-0.2-0.3-0.5-0.3-0.9v-9.8c0-0.8,0.6-1.4,1.4-1.4c0.8,0,1.4,0.6,1.4,1.4
	v5.7c-0.3,0.1-0.7,0.2-0.9,0.5c-0.7,0.7-0.8,1.9,0,2.7l2.6,2.7l0.4-0.4L10.3,20c-0.5-0.5-0.5-1.4,0-2c0.2-0.2,0.4-0.3,0.6-0.3
	c0.2-0.1,0.5-0.1,0.7,0c0.3,0.1,0.5,0.2,0.7,0.4l5.8,5.9V32.1z M16.9,18.7c-1.1-1.1-1.6-2.4-1.6-3.9c0-1.5,0.5-2.8,1.6-3.9
	c1.1-1.1,2.4-1.6,3.9-1.6c1.5,0,2.8,0.5,3.9,1.6c1.1,1.1,1.6,2.4,1.6,3.9c0,1.5-0.5,2.8-1.6,3.9c-1.1,1.1-2.4,1.6-3.9,1.6
	C19.2,20.3,17.9,19.8,16.9,18.7z M33.4,21.4c0,0.3-0.1,0.6-0.3,0.9l-4.8,6.4v3.5h-4.8v0h0v-8.1l5.8-5.9c0.2-0.2,0.4-0.3,0.7-0.4
	c0.2,0,0.5,0,0.7,0c0.2,0.1,0.4,0.2,0.6,0.3c0.5,0.5,0.6,1.4,0,2l-2.6,2.7l0.4,0.4l2.6-2.7c0.7-0.7,0.7-1.9,0-2.7
	c-0.3-0.3-0.6-0.4-0.9-0.5v-5.7c0-0.8,0.6-1.4,1.4-1.4c0.8,0,1.4,0.6,1.4,1.4V21.4z"/>
</svg>
