<?xml version="1.0" encoding="utf-8"?>
<!-- Generator: Adobe Illustrator 21.0.2, SVG Export Plug-In . SVG Version: 6.00 Build 0)  -->
<svg version="1.1" id="Layer_1" xmlns="http://www.w3.org/2000/svg" xmlns:xlink="http://www.w3.org/1999/xlink" x="0px" y="0px"
	 viewBox="0 0 41.5 41.5" style="enable-background:new 0 0 41.5 41.5;" xml:space="preserve">
<style type="text/css">
	.st0{fill:#3D5D77;}
	.st1{fill:#DFEDF1;}
	.st2{fill:#0AC7D9;}
	.st3{opacity:0.5;fill:#9B9C9E;}
	.st4{opacity:0.5;fill:none;stroke:#9B9C9E;stroke-miterlimit:10;}
	.st5{fill:none;stroke:#0AC7D9;stroke-miterlimit:10;}
	.st6{fill:none;stroke:#DFEDF1;stroke-width:1.2831;stroke-miterlimit:10;}
	.st7{fill:#90A3AF;}
	.st8{fill:#FFFFFF;}
	.st9{fill:none;stroke:#0AC7D9;stroke-width:0.825;stroke-miterlimit:10;}
	.st10{opacity:0.5;fill:none;stroke:#CCCCCC;stroke-width:0.25;stroke-miterlimit:10;}
	.st11{fill:#FFFFFF;stroke:#3D5D77;stroke-width:0.75;stroke-miterlimit:10;}
	.st12{fill:#FFDD71;}
	.st13{fill:#6997B7;}
	.st14{opacity:0.5;fill:none;stroke:#0AC7D9;stroke-miterlimit:10;}
	.st15{fill:none;stroke:#3D5D77;stroke-width:1.5;stroke-miterlimit:10;}
	.st16{fill:#1C304A;}
	.st17{fill:#FFF6DE;}
	.st18{fill:none;stroke:#FFDD71;stroke-miterlimit:10;}
	.st19{fill:none;stroke:#FFDD71;stroke-width:0.825;stroke-miterlimit:10;}
	.st20{fill:#F2F2F2;}
	.st21{fill:none;stroke:#666666;stroke-width:2;stroke-miterlimit:10;stroke-dasharray:1.5,3;}
	.st22{fill:#808080;}
	.st23{fill:#333333;}
	.st24{fill:#C9B57D;}
	.st25{fill:#A4B8BC;}
	.st26{fill:none;stroke:#CCCCCC;stroke-width:0.25;stroke-miterlimit:10;}
	.st27{fill:none;stroke:#3D5D77;stroke-miterlimit:10;}
	.st28{fill:none;stroke:#1C304A;stroke-width:0.9576;stroke-miterlimit:10;}
</style>
<path class="st2" d="M30.8,4H10.7C7,4,4,7,4,10.7v20.2c0,3.7,3,6.7,6.7,6.7h20.2c3.7,0,6.7-3,6.7-6.7V10.7C37.6,7,34.5,4,30.8,4z
	 M26.5,30.5c0-0.7,2.1-5.9,2.6-6.6c0.5,0.9,2.6,5.9,2.6,6.6C31.7,34.3,26.5,34.3,26.5,30.5z M31.9,22.9h-5.4c-0.5,0-0.9-0.4-0.9-0.9
	c0-0.3,0.2-0.5,0.4-0.7c-0.1-1-0.4-1.5-1.1-1.5c-2.6,0-2.6,0-2.6,0C21.6,21.3,20.4,22,19,22c-1.4,0-2.4-0.7-3.1-2.1c-6,0-7,0-7.2,0
	v-5.2c4.4,0,5.9,0,6.5,0v-1.7c0-0.5,0.4-0.9,0.9-0.9h2.2v-1.1c-0.2-0.1-0.3-0.2-0.5-0.4c-2.6,0-4.1,0-4.9,0
	c-0.3,0.4-0.7,0.6-1.2,0.6c-0.9,0-1.6-0.7-1.6-1.6c0-0.9,0.7-1.6,1.6-1.6c0.5,0,1,0.3,1.3,0.7c1.9,0,3.5,0,4.9,0
	c0.3-0.4,0.7-0.7,1.3-0.7c0.5,0,1,0.3,1.3,0.7c2.4,0,3.7,0,4.4,0C25,8.4,25.5,8.2,26,8.2c0.9,0,1.6,0.7,1.6,1.6
	c0,0.9-0.7,1.6-1.6,1.6c-0.5,0-1-0.3-1.3-0.6c-2.5,0-3.8,0-4.4,0c-0.1,0.2-0.3,0.3-0.5,0.4v1.1H22c0.5,0,0.9,0.4,0.9,0.9l0,1.7
	c5.3,0,5.3,0,5.3,0c2.3,0,4,1.6,4,3.5c0,1.6,0,2.5,0,3c0.3,0.1,0.6,0.4,0.6,0.8C32.8,22.5,32.4,22.9,31.9,22.9z"/>
</svg>
